<svg xmlns="http://www.w3.org/2000/svg" width="76" height="76" viewBox="0 0 76 76"><defs><style>.a{fill:#eceff1;}.b{fill:#455a64;}</style></defs><circle class="a" cx="38" cy="38" r="38"/><path class="b" d="M119.712,114.562a14.06,14.06,0,0,0-5.834-2.694l-10.384-2.083a2.342,2.342,0,0,1-1.875-2.32v-2.382a28.452,28.452,0,0,0,1.956-3.485,19.134,19.134,0,0,1,1.667-2.922c2.1-2.112,4.134-4.484,4.764-7.543a7.275,7.275,0,0,0-.668-5.587,41.944,41.944,0,0,0-.81-9.57c-.085-3.731-.762-5.829-2.467-7.666a7.322,7.322,0,0,0-4.4-1.847,7.687,7.687,0,0,1-1.615-.379,16.71,16.71,0,0,0-8-2.083c-6.236.256-13.9,4.224-16.469,11.3-.8,2.154-.715,5.692-.649,8.533L74.87,85.54a7.584,7.584,0,0,0-.62,5.587c.625,3.064,2.656,5.441,4.8,7.581a20.786,20.786,0,0,1,1.662,2.907,29.43,29.43,0,0,0,1.97,3.471v2.382a2.353,2.353,0,0,1-1.885,2.32L70.4,111.872a14.091,14.091,0,0,0-5.815,2.69,2.373,2.373,0,0,0-.279,3.447,37.7,37.7,0,0,0,55.685,0,2.372,2.372,0,0,0-.279-3.447Z" transform="translate(-54.268 -54.53)"/></svg>