<svg xmlns="http://www.w3.org/2000/svg" width="16.086" height="16.005" viewBox="0 0 16.086 16.005"><defs><style>.a{fill:#00bceb;}</style></defs><g transform="translate(0 -0.261)"><path class="a" d="M14.847,47.657a.4.4,0,0,0-.4.4v3.557a1.2,1.2,0,0,1-1.2,1.2H2a1.2,1.2,0,0,1-1.2-1.2V41.175a1.2,1.2,0,0,1,1.2-1.2H5.56a.4.4,0,1,0,0-.8H2a2.005,2.005,0,0,0-2,2v10.44a2.005,2.005,0,0,0,2,2H13.244a2.005,2.005,0,0,0,2-2V48.058A.4.4,0,0,0,14.847,47.657Zm0,0" transform="translate(0 -37.352)"/><path class="a" d="M118.944.789a1.8,1.8,0,0,0-2.55,0l-7.147,7.147a.4.4,0,0,0-.1.176l-.94,3.393A.4.4,0,0,0,108.7,12l3.393-.94a.4.4,0,0,0,.176-.1l7.147-7.147a1.8,1.8,0,0,0,0-2.55ZM110.12,8.2l5.85-5.85,1.886,1.887-5.85,5.85Zm-.377.756,1.507,1.507-2.085.578Zm9.1-5.711-.425.425L116.536,1.78l.425-.425a1,1,0,0,1,1.416,0l.47.47A1,1,0,0,1,118.848,3.242Zm0,0" transform="translate(-103.855 0)"/></g></svg>