<svg id="Capa_1" data-name="Capa 1" xmlns="http://www.w3.org/2000/svg" viewBox="0 0 400 400"><defs><style>.cls-1{fill:#00bceb;}.cls-2{fill:#1e4471;}.cls-3{fill:#fff;}.cls-4{fill:#0d274d;}.cls-5{fill:#fbab2c;}</style></defs><title>iconos2</title><circle class="cls-1" cx="200" cy="200" r="194.42"/><path class="cls-2" d="M272.22,205.35a7.17,7.17,0,0,1-4-13.14l33.46-22.31A14.32,14.32,0,0,0,308.08,158V133.62a14.35,14.35,0,1,0-28.7,0,7.17,7.17,0,0,1-14.34,0,28.69,28.69,0,1,1,57.38,0V158a28.63,28.63,0,0,1-12.78,23.87l-33.45,22.3A7.13,7.13,0,0,1,272.22,205.35Z"/><path class="cls-2" d="M127.78,205.35a7.13,7.13,0,0,1-4-1.21l-33.45-22.3A28.63,28.63,0,0,1,77.58,158V133.62a28.69,28.69,0,1,1,57.38,0,7.17,7.17,0,1,1-14.34,0,14.35,14.35,0,0,0-28.7,0V158a14.32,14.32,0,0,0,6.39,11.93l33.46,22.31a7.17,7.17,0,0,1-4,13.14Z"/><path class="cls-3" d="M271.73,90.58H128.27a7.09,7.09,0,0,0-7.17,7.17v86.08c0,24.24,12.91,43.61,36.43,54.66a35.88,35.88,0,0,1,20.95,32.37,7.11,7.11,0,0,0,7.17,7.18h28.7a7.11,7.11,0,0,0,7.17-7.18v-2.29c0-11.91,6.46-23.91,16.64-29.65,24.53-13.92,40.74-28.55,40.74-55.09V97.75A7.09,7.09,0,0,0,271.73,90.58Z"/><path class="cls-2" d="M228.69,263.69H171.31a21.49,21.49,0,0,0-21.52,21.52v14.35a7.1,7.1,0,0,0,7.17,7.17H243a7.1,7.1,0,0,0,7.17-7.17V285.21A21.49,21.49,0,0,0,228.69,263.69Z"/><path class="cls-4" d="M243,292.38H157a21.49,21.49,0,0,0-21.52,21.52v14.35a7.11,7.11,0,0,0,7.17,7.17H257.39a7.11,7.11,0,0,0,7.17-7.17V313.9A21.49,21.49,0,0,0,243,292.38Z"/><path class="cls-5" d="M242.61,150.26a6.92,6.92,0,0,0-5.88-4.88l-20.95-3.16-9.32-18.93a7.46,7.46,0,0,0-12.92,0l-9.32,18.93-20.95,3.16a7.11,7.11,0,0,0-4,12.2l15.2,14.77-3.58,20.8a7.18,7.18,0,0,0,10.33,7.61l18.79-9.9,18.79,9.9a6.74,6.74,0,0,0,7.46-.58,7,7,0,0,0,2.87-7l-3.58-20.8,15.2-14.77A7,7,0,0,0,242.61,150.26Z"/></svg>