<svg xmlns="http://www.w3.org/2000/svg" xmlns:xlink="http://www.w3.org/1999/xlink" width="213.549" height="213.549" viewBox="0 0 213.549 213.549"><defs><style>.a{fill:none;}.b{fill:#1e4471;}.c{clip-path:url(#a);}.d{fill:#0d274d;}.e{fill:#fff;}.f{fill:#fbab1a;}.g{fill:#f47521;}.h{fill:#08bceb;}.i{fill:#697c86;}</style><clipPath id="a"><ellipse class="a" cx="106.775" cy="106.775" rx="106.775" ry="106.775"/></clipPath></defs><ellipse class="b" cx="106.775" cy="106.775" rx="106.775" ry="106.775" transform="translate(0 0)"/><g class="c" transform="translate(0 0)"><path class="d" d="M164.47,253.125l72.051,72.046,91.378-111.1L257.389,143.56H231.158L178.6,247.946Z" transform="translate(-95.044 -83.265)"/></g><path class="e" d="M327.425,134.27H317.7l-6.9,6.751h16.633A3.38,3.38,0,0,1,330.8,144.4v5.14a30.082,30.082,0,0,1-20.563,28.528l-4.76,1.585a3.375,3.375,0,0,0,1.07,6.576,3.494,3.494,0,0,0,1.065-.17l4.76-1.589a36.8,36.8,0,0,0,25.174-34.934V144.4A10.135,10.135,0,0,0,327.425,134.27Z" transform="translate(-173.18 -78.031)"/><path class="e" d="M150.179,179.649l-4.76-1.581a30.1,30.1,0,0,1-20.563-28.532V144.4a3.38,3.38,0,0,1,3.375-3.375h17.441l-7.712-6.751h-9.729A10.135,10.135,0,0,0,118.11,144.4v5.14a36.811,36.811,0,0,0,25.174,34.934l4.76,1.585a3.494,3.494,0,0,0,1.065.17,3.375,3.375,0,0,0,1.07-6.576Z" transform="translate(-68.928 -78.031)"/><path class="f" d="M211.649,200.146v4.991a3.341,3.341,0,0,0,3.375,3.375,10.109,10.109,0,0,1,10.122,10.126v6.747a3.341,3.341,0,0,1-3.375,3.375H180.829a3.341,3.341,0,0,1-3.375-3.375v-6.747a10.109,10.109,0,0,1,10.122-10.126,3.341,3.341,0,0,0,3.375-3.375v-4.991a33.624,33.624,0,0,1-23.218-28.213L163.55,134.27h75.5l-4.183,37.663A33.624,33.624,0,0,1,211.649,200.146Z" transform="translate(-94.525 -78.031)"/><path class="g" d="M244.964,177.3a3.445,3.445,0,0,0-2.764-2.362l-7.563-1.079-3.354-6.681a3.576,3.576,0,0,0-6.078,0l-3.371,6.681-7.581,1.079a3.362,3.362,0,0,0-1.821,5.8l5.4,5.2-1.284,7.279a3.423,3.423,0,0,0,1.349,3.306,3.314,3.314,0,0,0,3.493.271l6.816-3.493,6.816,3.493a3.3,3.3,0,0,0,3.493-.271,3.423,3.423,0,0,0,1.349-3.306l-1.284-7.288,5.4-5.2A3.445,3.445,0,0,0,244.964,177.3Z" transform="translate(-121.452 -95.617)"/><path class="h" d="M241.125,338.581v20.427h-61.2V338.581a3.341,3.341,0,0,1,3.375-3.371h54.444a3.341,3.341,0,0,1,3.375,3.371Z" transform="translate(-103.753 -191.226)"/><path class="i" d="M239.167,385.975a3.341,3.341,0,0,1-3.375,3.375H167.845a3.375,3.375,0,1,1,0-6.751h67.946a3.341,3.341,0,0,1,3.375,3.375Z" transform="translate(-95.044 -217.923)"/></svg>