<svg xmlns="http://www.w3.org/2000/svg" xmlns:xlink="http://www.w3.org/1999/xlink" width="213.549" height="213.549" viewBox="0 0 213.549 213.549"><defs><style>.a{fill:none;}.b{fill:#1e4471;}.c{clip-path:url(#a);}.d{fill:#0d274d;}.e{fill:#fff;}.f{fill:#00bceb;}.g{fill:#238aca;}.h{fill:#e3241b;}.i{fill:#fbab2c;}.j{fill:#74bf4b;}.k{fill:#fbab1a;}.l{fill:#f47521;}</style><clipPath id="a"><ellipse class="a" cx="106.775" cy="106.775" rx="106.775" ry="106.775"/></clipPath></defs><ellipse class="b" cx="106.775" cy="106.775" rx="106.775" ry="106.775" transform="translate(0 0)"/><g class="c" transform="translate(0 0)"><path class="d" d="M113.88,222.936l91.657,91.653L312.072,199.024,234.838,121.79Z" transform="translate(-66.545 -71.001)"/></g><path class="e" d="M231.618,122.99v88.723a8.458,8.458,0,0,1-8.45,8.45H113.32a8.458,8.458,0,0,1-8.45-8.45V122.99a8.458,8.458,0,0,1,8.45-8.45H223.168A8.458,8.458,0,0,1,231.618,122.99Z" transform="translate(-61.469 -66.917)"/><path class="f" d="M231.618,122.99v16.9H104.87v-16.9a8.45,8.45,0,0,1,8.45-8.45H223.168A8.45,8.45,0,0,1,231.618,122.99Z" transform="translate(-61.469 -66.917)"/><path class="g" d="M161.1,101.95v10.563a6.34,6.34,0,0,1-12.663,0V101.95a6.34,6.34,0,0,1,12.663,0Z" transform="translate(-86.014 -56.44)"/><path class="g" d="M335.253,101.95v10.563a6.34,6.34,0,0,1-12.663,0V101.95a6.34,6.34,0,0,1,12.663,0Z" transform="translate(-184.117 -56.44)"/><path class="h" d="M216.27,277.984c-60.549,20.96-56.924,19.777-57.5,19.777a2.183,2.183,0,0,1-2.065-2.9c16.685-48.2.817-2.358,19.65-56.767a2.183,2.183,0,0,1,2.777-1.349c1.162.406,37.733,36.986,38.479,38.479A2.183,2.183,0,0,1,216.27,277.984Z" transform="translate(-90.601 -135.69)"/><path class="i" d="M190.681,351.62c-9.991,3.458-16.812,5.825-21.48,7.45l-.17.057c-10.48,3.6-9.821,3.415-10.262,3.415a2.183,2.183,0,0,1-2.065-2.9c.118-.349,2.62-7.572,2.777-8.022Z" transform="translate(-90.601 -200.471)"/><path class="i" d="M226.355,312.527H171.88l3.777-10.917h40.864c.6.611,9.349,9.467,9.707,10.183A2.122,2.122,0,0,1,226.355,312.527Z" transform="translate(-99.218 -172.299)"/><path class="j" d="M268.8,243.431a2.183,2.183,0,0,1-1.541-3.729l17.467-17.467a2.183,2.183,0,1,1,3.087,3.087L270.35,242.789A2.183,2.183,0,0,1,268.8,243.431Z" transform="translate(-152.588 -127.224)"/><path class="i" d="M248.8,217.782a2.183,2.183,0,0,1-1.546-3.729,13.275,13.275,0,0,0,0-18.751,2.183,2.183,0,1,1,3.087-3.088,17.646,17.646,0,0,1,0,24.93A2.183,2.183,0,0,1,248.8,217.782Z" transform="translate(-141.316 -110.313)"/><path class="h" d="M310.648,280.143a2.183,2.183,0,0,1-1.541-.637,13.275,13.275,0,0,0-18.751,0,2.186,2.186,0,1,1-3.092-3.092,17.655,17.655,0,0,1,24.93,0,2.183,2.183,0,0,1-1.546,3.729Z" transform="translate(-163.856 -155.203)"/><path class="j" d="M197.527,200.947h-2.183v-2.183a2.183,2.183,0,1,0-4.367,0v2.183h-2.183a2.183,2.183,0,0,0,0,4.367h2.183V207.5a2.183,2.183,0,1,0,4.367,0v-2.183h2.183a2.183,2.183,0,1,0,0-4.367Z" transform="translate(-107.516 -113.132)"/><path class="d" d="M317.557,320.977h-2.183v-2.183a2.183,2.183,0,0,0-4.367,0v2.183h-2.183a2.183,2.183,0,1,0,0,4.367h2.183v2.183a2.183,2.183,0,0,0,4.367,0v-2.183h2.183a2.183,2.183,0,1,0,0-4.367Z" transform="translate(-175.132 -180.749)"/><ellipse class="j" cx="2.183" cy="2.183" rx="2.183" ry="2.183" transform="translate(120.587 87.814)"/><ellipse class="i" cx="2.183" cy="2.183" rx="2.183" ry="2.183" transform="translate(142.424 98.736)"/><ellipse class="d" cx="2.183" cy="2.183" rx="2.183" ry="2.183" transform="translate(133.691 127.128)"/><ellipse class="h" cx="2.183" cy="2.183" rx="2.183" ry="2.183" transform="translate(98.744 94.365)"/><path class="k" d="M234.125,280.34,221.9,284.585a2.335,2.335,0,0,1-.716.122c-.742,0-1.083-.245-2.847-1.45-9.55-6.506-20.96-18.021-27.183-27.75a2.183,2.183,0,0,1-.218-1.886l4.223-12.2a2.183,2.183,0,0,1,4.249.734c-.022,2.4,4.332,10.166,14.065,19.9,6.83,6.83,12.663,11.008,16.406,12.891a10.514,10.514,0,0,0,3.493,1.175,2.183,2.183,0,0,1,.808,4.227Z" transform="translate(-109.883 -137.558)"/><path class="l" d="M241.826,276.806c-5.214,5.214-20.82-9-26.021-14.2-2.061-2.057-19.943-20.275-14.2-26.021s23.96,12.139,26.021,14.2S247.573,271.064,241.826,276.806Z" transform="translate(-115.327 -135.032)"/></svg>