<svg xmlns="http://www.w3.org/2000/svg" xmlns:xlink="http://www.w3.org/1999/xlink" width="213.549" height="213.549" viewBox="0 0 213.549 213.549"><defs><style>.a{fill:none;}.b{fill:#1e4471;}.c{clip-path:url(#a);}.d{fill:#0d274d;}.e{fill:#e3241b;}.f{fill:#00bceb;}.g{fill:#fbab2c;}</style><clipPath id="a"><ellipse class="a" cx="106.775" cy="106.775" rx="106.775" ry="106.775"/></clipPath></defs><ellipse class="b" cx="106.775" cy="106.775" rx="106.775" ry="106.775" transform="translate(0 0)"/><g class="c" transform="translate(0 0)"><path class="d" d="M109.77,311.906l78.714,78.714,100.163-56.806L232.239,277.4Z" transform="translate(-64.23 -158.66)"/><path class="d" d="M283.575,206.58l37.318,37.314-47.523,7.991Z" transform="translate(-156.39 -118.766)"/><path class="e" d="M241.089,205.83H206.256a3,3,0,0,0-3,3V223.4l20.41,13.685L244.08,223.4V208.826A3,3,0,0,0,241.089,205.83Z" transform="translate(-116.895 -118.343)"/><path class="e" d="M267.419,205.83H250v31.253L270.41,223.4V208.826A3,3,0,0,0,267.419,205.83Z" transform="translate(-143.225 -118.343)"/><path class="f" d="M337.564,294.692V280.483a3.083,3.083,0,0,0-3.083-3.083H296.74v17.292l20.414,8.594Z" transform="translate(-169.555 -158.66)"/><path class="g" d="M109.77,260.916v14.506l20.41,9.275,20.414-9.275v-17.5H112.766A3,3,0,0,0,109.77,260.916Z" transform="translate(-64.23 -147.687)"/><path class="g" d="M113.556,324.432h37.038V298H109.77v22.637a3.786,3.786,0,0,0,3.786,3.782Z" transform="translate(-64.23 -170.265)"/><path class="e" d="M203.26,246.06v49.112h40.82V259.745h0V246.06Z" transform="translate(-116.895 -141.006)"/><path class="f" d="M296.74,314.84v19.078h37.038a3.786,3.786,0,0,0,3.786-3.782V314.853Z" transform="translate(-169.555 -179.752)"/><path class="g" d="M243.039,94.931a3.594,3.594,0,0,0-2.9-2.441l-11.79-1.712a.044.044,0,0,1-.022,0l-5.279-10.7a3.585,3.585,0,0,0-3.9-1.939,3.672,3.672,0,0,0-2.581,2.026l-5.24,10.6-11.79,1.712a3.589,3.589,0,0,0-3.057,3.109,3.672,3.672,0,0,0,1.127,3.079l8.463,8.253v.022l-2.013,11.746a3.585,3.585,0,0,0,5.205,3.782l10.572-5.528h0l10.55,5.546A3.585,3.585,0,0,0,235.6,118.7l-2.013-11.746v-.022l8.533-8.3a3.589,3.589,0,0,0,.908-3.681Z" transform="translate(-113.069 -46.373)"/><path class="e" d="M250,295.172h20.41V259.745h0V246.06H250Z" transform="translate(-143.225 -141.006)"/></g></svg>