<svg xmlns="http://www.w3.org/2000/svg" width="213.55" height="213.558" viewBox="0 0 213.55 213.558"><defs><style>.a{fill:#1e4471;}.b{fill:#08bceb;}.c{fill:#d3d3d8;}.d{fill:#ececf1;}.e{fill:#fff;}.f{fill:#fbab1a;}.g{fill:#f47521;}.h{fill:#fbab2c;}.i{fill:#bcbec0;}</style></defs><path class="a" d="M214.152,111.807c0,1.528,3.847,3.493,3.786,5.022A106.778,106.778,0,0,1,4.48,112.244,108.06,108.06,0,0,1,5.694,96.06c.293-1.908,3.166-1.9,3.554-3.768A106.369,106.369,0,0,1,31.375,46.254c.8-.978-.9-3.843-.07-4.8A106.81,106.81,0,0,1,206.82,64.559c.712,1.428-2.485,2.415-1.834,3.878a106.365,106.365,0,0,1,9.17,43.353Z" transform="translate(-4.48 -5.46)"/><path class="b" d="M83.532,143.246H62.677a6.257,6.257,0,0,1,0-12.515H83.532a6.257,6.257,0,1,1,0,12.515Zm112.617,0H175.29a6.257,6.257,0,0,1,0-12.515h20.855a6.257,6.257,0,1,1,0,12.515Zm14.6,39.624a6.257,6.257,0,0,0-6.257-6.257H183.635a6.257,6.257,0,0,0,0,12.515H204.49a6.257,6.257,0,0,0,6.258-6.258Zm-6.432-98.015h-4a6.257,6.257,0,0,1-6.253-6.257,6.253,6.253,0,0,0-6.253-6.257h-41.54A6.371,6.371,0,0,0,139.85,78.3a6.257,6.257,0,0,0,6.249,6.55h25.026a6.262,6.262,0,0,1,6.257,6.257,6.258,6.258,0,0,0,6.253,6.257H204.49a6.253,6.253,0,0,0,6.249-6.55A6.371,6.371,0,0,0,204.316,84.855Zm-83.4,91.762h-8.166a6.253,6.253,0,0,1-6.253-6.257,6.257,6.257,0,0,0-6.257-6.253H79.362a6.258,6.258,0,0,0-6.253,6.249,6.253,6.253,0,0,1-6.253,6.258H58.7a6.371,6.371,0,0,0-6.428,5.956,6.257,6.257,0,0,0,6.249,6.55h62.553a6.257,6.257,0,0,0,6.249-6.55,6.371,6.371,0,0,0-6.428-5.956Z" transform="translate(-31.398 -43.135)"/><path class="c" d="M221.072,225.856,140.493,86.291a4.734,4.734,0,0,1,1.747-6.471l78.509,97.845-9.65,16.69L227.234,222.3Z" transform="translate(-80.744 -47.349)"/><path class="d" d="M178.217,151.63,140.493,86.291a4.734,4.734,0,0,1,1.747-6.471l49.946,62.256a8.489,8.489,0,1,1-13.973,9.554Zm80.823-65.339L178.462,225.856,172.3,222.3l16.157-27.947-9.677-16.69L257.307,79.82a4.733,4.733,0,0,1,1.747,6.471Z" transform="translate(-80.744 -47.349)"/><path class="e" d="M289.9,155.045a8.633,8.633,0,0,1-.629-11.506L340.4,79.82a4.733,4.733,0,0,1,1.747,6.471l-38.676,66.968a8.629,8.629,0,0,1-13.576,1.79Z" transform="translate(-163.84 -47.349)"/><path class="f" d="M232.2,48.643a.93.93,0,0,1-1.009-.079l-5.017-3.9a.913.913,0,0,1,.118-1.524l16.043-8.9a.917.917,0,0,1,.934.026l5.419,3.406.231.144a.917.917,0,0,1-.048,1.576Z" transform="translate(-129.164 -21.608)"/><path class="g" d="M151.24,337.9a26.2,26.2,0,1,0,9.607,35.807A26.2,26.2,0,0,0,151.24,337.9Zm3.437,32.257a19.1,19.1,0,1,1-6.987-26.1,19.1,19.1,0,0,1,6.987,26.1ZM252.666,347.5a26.2,26.2,0,1,0-9.607,35.807A26.2,26.2,0,0,0,252.666,347.5Zm-13.148,29.654a19.109,19.109,0,1,1,6.987-26.1,19.109,19.109,0,0,1-6.987,26.1Z" transform="translate(-65.024 -190.76)"/><path class="h" d="M173.791,371.476a26.3,26.3,0,0,1-7.345,9.4,3.559,3.559,0,0,1-5.816-2.747,3.493,3.493,0,0,1,1.31-2.738,19.043,19.043,0,0,0-1.4-30.72,19.414,19.414,0,0,0-21.908.437,3.555,3.555,0,0,1-4.258-5.694,26.2,26.2,0,0,1,39.436,32.052Zm82.631-32.8a26.327,26.327,0,0,0-30.27.747,3.555,3.555,0,0,0,4.258,5.694,19.414,19.414,0,0,1,21.908-.437,19.043,19.043,0,0,1,1.4,30.72,3.493,3.493,0,0,0-1.288,2.738,3.559,3.559,0,0,0,5.816,2.747,26.235,26.235,0,0,0-1.825-42.2Z" transform="translate(-76.85 -190.647)"/><path class="i" d="M275.676,278.142a4.738,4.738,0,1,1-4.738-4.742,4.738,4.738,0,0,1,4.738,4.742Z" transform="translate(-151.915 -156.399)"/><path class="g" d="M56.566,143.5l-4.253-.712a141.455,141.455,0,0,0-45.043-.266A106.4,106.4,0,0,1,32.876,87.94,142,142,0,0,1,52.81,90.049c1.882.336,3.729.52,5.6.72C59.291,90.853,66.806,145.2,56.566,143.5Zm142.914-27.012a2.62,2.62,0,0,0-3.109-3.306l-.493.114-18.489,4.223L162.14,170.759l18.34-2.31a6.55,6.55,0,0,0,5.476-4.694Zm-72.531,118.98a.917.917,0,0,1,1.576-.048l.144.231,3.406,5.419a.917.917,0,0,1,.026.934l-8.9,16.043a.913.913,0,0,1-1.524.118l-3.9-5.017a.93.93,0,0,1-.079-1.009Z" transform="translate(-6.052 -51.923)"/><path class="f" d="M101.538,166.338a.908.908,0,0,1-.079,1l-3.891,5.022a.917.917,0,0,1-1.528-.118l-8.9-16.048a.913.913,0,0,1,.026-.93l3.4-5.423.144-.227a.917.917,0,0,1,1.576.048ZM88.726,86.331c4.205.55,19.305,1.079,23.436.952,39.8-1.175,61.942-7.423,61.942-7.423l-15.24,53.221L140.38,137.3a141.372,141.372,0,0,1-54.837,1.611l-4.057-.677-.345-.057c-18.227-3-27.89-23.379-18.34-39.187l.3-.5A26.056,26.056,0,0,1,88.726,86.331Zm148.839,20.139q-6.144.83-12.227,2.183L209.527,163.91l20.126-2.537a140.971,140.971,0,0,1,19.03-2.651q.092-2.271.092-4.568a106.343,106.343,0,0,0-11.209-47.684Z" transform="translate(-35.225 -47.372)"/><path class="e" d="M77.523,286.588a.921.921,0,0,1-.079,1l-3.9,5.022a.913.913,0,0,1-1.524-.118l-8.9-16.048a.913.913,0,0,1,.026-.93l3.406-5.423.144-.227a.917.917,0,0,1,1.576.048Zm162.712-33.663a.913.913,0,0,0-.742-1.389h-.271l-6.4-.258a.913.913,0,0,0-.817.437l-9.493,15.72a.917.917,0,0,0,.659,1.38l6.288.873a.908.908,0,0,0,.913-.437Z" transform="translate(-37.45 -143.937)"/></svg>