<svg id="Capa_1" data-name="Capa 1" xmlns="http://www.w3.org/2000/svg" xmlns:xlink="http://www.w3.org/1999/xlink" viewBox="0 0 400 400"><defs><style>.cls-1{fill:none;}.cls-2{clip-path:url(#clip-path);}.cls-3{fill:#1e4471;}.cls-4{fill:#d1a184;}.cls-5{fill:#a0e5a5;}.cls-6{fill:#ff7d97;}.cls-7{fill:#33d6f5;}</style><clipPath id="clip-path"><circle class="cls-1" cx="200" cy="200" r="194.42"/></clipPath></defs><title>basketball</title><g class="cls-2"><circle class="cls-3" cx="200" cy="200" r="194.42"/></g><path class="cls-4" d="M190.25,259.31A16.32,16.32,0,0,1,186.93,273l-43.19,53L121,308.6l36.15-49.3Z"/><path class="cls-4" d="M241.1,219.07a40.67,40.67,0,0,1,19.1,55.05l-22.81,45.51-26-12L230,264.29a10.87,10.87,0,0,0-3.55-13.05Z"/><path class="cls-5" d="M148.77,190.28a81.31,81.31,0,0,0,.5,38.7l7.85,30.32H190.3l-3-34.51L227.13,252l23.64-26.6-38.19-35.13Z"/><path class="cls-4" d="M201.69,99a15.72,15.72,0,0,1,21.66.56,59.17,59.17,0,0,0,43.07,17.25l32.39-.76a13.55,13.55,0,0,1,14,12.53,13.35,13.35,0,0,1-13,14.15l-34.66,2.57a107.57,107.57,0,0,1-27.36-3,78.08,78.08,0,0,1-36.56-20.48A15.72,15.72,0,0,1,201.69,99Z"/><path class="cls-5" d="M164.41,126.54l-16.36,68.08h63.8l15.37-44a82.69,82.69,0,0,0,4.61-27.22v-1.27a34.35,34.35,0,0,0-15.41-28.65l-18.75-4.92-28.11,5.22Z"/><ellipse class="cls-6" cx="308.9" cy="171.18" rx="29.48" ry="29.41"/><path class="cls-7" d="M206.77,339l25.09,11.72A14,14,0,0,0,246.38,327l-9.63-7.53L211.38,307.6c-3.39,7.16-6.63,14-9,19A9.25,9.25,0,0,0,206.77,339Z"/><path class="cls-7" d="M109.65,338.18l21.94,16.9a14,14,0,0,0,19.33-20l-7.77-9.44L121,308.59c-4.86,6.25-9.51,12.19-12.95,16.59a9.23,9.23,0,0,0,1.64,13Z"/><path class="cls-4" d="M188.93,108.68a15.71,15.71,0,0,1-14.44,16.14,59.24,59.24,0,0,0-10.07,1.72,58.54,58.54,0,0,0-31,20l-20.38,25.18a13.55,13.55,0,0,1-18.59,2.53,13.34,13.34,0,0,1-2.37-19.07l20.48-28.09a108.09,108.09,0,0,1,20-18.93A78.12,78.12,0,0,1,171.85,93.5a15.72,15.72,0,0,1,17.08,15.18Z"/><circle class="cls-4" cx="211.85" cy="67.73" r="25.72"/></svg>