<svg id="Capa_1" data-name="Capa 1" xmlns="http://www.w3.org/2000/svg" xmlns:xlink="http://www.w3.org/1999/xlink" viewBox="0 0 400 400"><defs><style>.cls-1{fill:none;}.cls-2{clip-path:url(#clip-path);}.cls-3{fill:#1e4471;}.cls-4{fill:#ffb69e;}.cls-5{fill:#fa503c;}.cls-6{fill:#fa870a;}.cls-7{fill:#3c5a73;}.cls-8{fill:#ffa50a;}</style><clipPath id="clip-path"><circle class="cls-1" cx="200" cy="200" r="194.42"/></clipPath></defs><title>bowling</title><g class="cls-2"><circle class="cls-3" cx="200" cy="200" r="194.42"/></g><path class="cls-4" d="M268,130,241.2,112.31a18,18,0,0,0-24.93,5.1l-50.85,77-27.48,70.11L98.42,309.91a14.05,14.05,0,0,0,21.19,18.47l41.12-47.19a14.21,14.21,0,0,0,2.48-4.08l26.3-66.76L222.22,232l50.86-77A18,18,0,0,0,268,130Z"/><circle class="cls-5" cx="141.17" cy="178.3" r="24.24"/><path class="cls-4" d="M123.59,171.78a12.05,12.05,0,0,1-1.42-17L157.5,113a12.09,12.09,0,0,1,9.22-4.27h.11l65,.6a12.07,12.07,0,0,1-.11,24.13h-.12l-59.31-.55-31.68,37.47A12.06,12.06,0,0,1,123.59,171.78Z"/><path class="cls-6" d="M231.81,109.31,194.39,109V133.1l37.19.34h.12a12.07,12.07,0,0,0,.11-24.13Z"/><path class="cls-4" d="M226.87,333.2A14.07,14.07,0,0,1,213,317.07l9.52-63.85-32.18-48.28a14.05,14.05,0,1,1,23.39-15.59l35.19,52.79a14,14,0,0,1,2.2,9.86l-10.31,69.21A14.06,14.06,0,0,1,226.87,333.2Z"/><path class="cls-7" d="M171.34,256.47l18.17-46.12,32.71,21.59,50.86-77A18,18,0,0,0,268,130L241.2,112.31a18,18,0,0,0-24.93,5.1l-50.85,77L145,246.65Z"/><path class="cls-7" d="M222.47,253.22l26.4-11.08-35.19-52.79a14.05,14.05,0,1,0-23.39,15.59Z"/><path class="cls-8" d="M197.91,215.89l-32.5-21.45,50.86-77a18,18,0,0,1,24.93-5.1L268,130a18,18,0,0,1,5.1,24.93L232.1,217Z"/><circle class="cls-4" cx="278.41" cy="93.44" r="26.63"/><path class="cls-4" d="M278.2,222.82l-43-21.84a12.1,12.1,0,0,1-6.52-9.36l-6.81-58.37a12.07,12.07,0,0,1,24-2.8l6.06,52,37.21,18.91a12.07,12.07,0,1,1-10.94,21.51Z"/><path class="cls-6" d="M225.49,164l23.89-3.52-3.51-30.05a12.07,12.07,0,0,0-24,2.8Z"/></svg>