<svg id="Capa_1" data-name="Capa 1" xmlns="http://www.w3.org/2000/svg" viewBox="0 0 400 400"><defs><style>.cls-1{fill:#1e4471;}.cls-2{fill:none;stroke:#08bceb;stroke-miterlimit:10;stroke-width:5px;stroke-dasharray:5 10;}.cls-3{fill:#ffb69e;}.cls-4{fill:#0d274d;}.cls-5{fill:#ffa50a;}.cls-6{fill:#fa870a;}</style></defs><title>burpees</title><circle class="cls-1" cx="200" cy="200" r="194.42"/><path class="cls-2" d="M97.07,320.43s72.2-73,177.89-9"/><path class="cls-3" d="M91.56,325.46a11.18,11.18,0,0,1-.35-15.79L125,274.38l-50.82-4.69a11.16,11.16,0,1,1,2.06-22.23L150,254.27a11.17,11.17,0,0,1,7,18.83l-49.72,52A11.17,11.17,0,0,1,91.56,325.46Z"/><path class="cls-4" d="M76.19,247.46a11.16,11.16,0,1,0-2.06,22.23l49.33,4.55,6.68-21.81Z"/><path class="cls-5" d="M64,257.52l49.57-6.61,5.88-64.3a11.42,11.42,0,0,0-10.33-12.41l-25.82-2.36a11.41,11.41,0,0,0-12.41,10.33Z"/><circle class="cls-3" cx="105.83" cy="145.74" r="19.08"/><path class="cls-3" d="M185.16,217,93.38,194.19a8.73,8.73,0,1,1,4.22-16.95l91.77,22.81a8.74,8.74,0,1,1-4.21,17Z"/><path class="cls-6" d="M119.07,182.57,97.6,177.24a8.73,8.73,0,1,0-4.22,16.95l21.25,5.29Z"/><path class="cls-3" d="M259.34,329.82a12,12,0,1,0,23.9,0V264h-23.9Z"/><path class="cls-4" d="M271.29,213.28a12,12,0,0,0-12,11.95V264h23.9V225.23A12,12,0,0,0,271.29,213.28Z"/><path class="cls-5" d="M245.63,221.23l50.26.44,1.05-74.4a11.41,11.41,0,0,0-11-11.8L260,134.59a11.41,11.41,0,0,0-11.8,11Z"/><circle class="cls-3" cx="280.98" cy="107.24" r="19.08"/><path class="cls-3" d="M269.16,48.64l2.94,94.52a8.74,8.74,0,1,1-17.47.54l-2.94-94.52a8.74,8.74,0,0,1,17.47-.54Z"/><path class="cls-6" d="M253.94,121.59l.69,22.11a8.74,8.74,0,1,0,17.47-.54l-.68-21.88Z"/></svg>