<svg id="Capa_1" data-name="Capa 1" xmlns="http://www.w3.org/2000/svg" xmlns:xlink="http://www.w3.org/1999/xlink" viewBox="0 0 400 400"><defs><style>.cls-1{fill:none;}.cls-2{fill:#1e4471;}.cls-3{fill:#ffb69e;}.cls-4{clip-path:url(#clip-path);}.cls-5{fill:#4699f2;}.cls-6{fill:#0d274d;}.cls-7{fill:#00bceb;}.cls-8{fill:#238aca;}.cls-9{fill:#e28c71;}.cls-10{fill:#bcbec0;}.cls-11{fill:#e6e7e8;}.cls-12{fill:#fbab1a;}</style><clipPath id="clip-path"><rect class="cls-1" x="88.75" y="67.79" width="222.51" height="264.42"/></clipPath></defs><title>iconos2</title><circle class="cls-2" cx="200" cy="200" r="194.42"/><path class="cls-3" d="M168.26,178.63l-18.58-32.11a11.11,11.11,0,1,1,19.24-11.13l13.29,23,29.47-15.12A11.12,11.12,0,1,1,221.83,163L183,183a11.11,11.11,0,0,1-14.69-4.33Zm0,0"/><g class="cls-4"><path class="cls-5" d="M178,151l-9.06-15.65a11.11,11.11,0,1,0-19.24,11.13l9.5,16.43Zm0,0"/><path class="cls-6" d="M165.85,332.2a13.35,13.35,0,0,1-12.78-13.88l2.47-60.14-32.89-42.76a13.34,13.34,0,1,1,21.15-16.27l35.84,46.6a13.32,13.32,0,0,1,2.76,8.68l-2.67,65a13.34,13.34,0,0,1-13.88,12.79Zm0,0"/><path class="cls-6" d="M126.52,332.17a13.35,13.35,0,0,1-12.21-14.39l4.46-54.66-26.9-36a13.34,13.34,0,0,1,21.38-16l29.91,40a13.34,13.34,0,0,1,2.61,9.07L140.9,320a13.36,13.36,0,0,1-14.38,12.22Zm0,0"/></g><path class="cls-7" d="M134.29,222l-44.45-6.82,20-82.67a16.57,16.57,0,0,1,20-12.22l28.73,6.94a16.57,16.57,0,0,1,12.22,20l-14.49,60a19.56,19.56,0,0,1-22,14.74Zm0,0"/><path class="cls-3" d="M180.7,92.33a24.54,24.54,0,1,1-24.54-24.54A24.54,24.54,0,0,1,180.7,92.33Zm0,0"/><path class="cls-3" d="M196.47,204.52,152.39,199a11.13,11.13,0,0,1-8.58-6.07l-24.16-48.46a11.11,11.11,0,1,1,19.89-9.92l21.51,43.12,38.16,4.75a11.11,11.11,0,1,1-2.74,22.06Zm0,0"/><path class="cls-8" d="M133.34,172l20.35-9-14.15-28.36a11.12,11.12,0,0,0-19.9,9.92Zm0,0"/><path class="cls-9" d="M247.48,209.46a4.41,4.41,0,0,1-3.87-2.25l-38.52-67.76a4.45,4.45,0,1,1,7.73-4.4l38.52,67.77a4.45,4.45,0,0,1-1.67,6.06,4.36,4.36,0,0,1-2.19.58Zm0,0"/><path class="cls-10" d="M302,205.44h-79.2a4.45,4.45,0,0,1,0-8.89H302a4.45,4.45,0,1,1,0,8.89Zm0,0"/><path class="cls-11" d="M302,326.82a5.38,5.38,0,0,1-5.38,5.39H228.16a5.39,5.39,0,0,1-5.39-5.39V236.57H302v90.25Zm0,0"/><path class="cls-11" d="M233.63,186.85a4.31,4.31,0,0,0-4.3,4.3v16.13a33,33,0,0,0,66.08,0V191.15a4.3,4.3,0,0,0-4.3-4.3Zm0,0"/><path class="cls-10" d="M302,252.58h-79.2a8.9,8.9,0,0,1,0-17.79H302a8.9,8.9,0,1,1,0,17.79Zm0,0"/><path class="cls-12" d="M270.66,152.27a1.28,1.28,0,0,0,2.2,1.1c2.91-3.19,5.9-7.74,4.36-11.89-2.32-6.28-4.61-9.06-3.59-13.79a.68.68,0,0,0-1.19-.57,15.64,15.64,0,0,0-3.69,11.94c.83,6.11,2.66,9.26,1.91,13.21Zm0,0"/><path class="cls-12" d="M253.72,175.3a1.28,1.28,0,0,0,2.2,1.1c2.91-3.19,5.9-7.74,4.36-11.89-2.33-6.28-4.61-9.06-3.59-13.79a.68.68,0,0,0-1.19-.58,15.68,15.68,0,0,0-3.69,12c.83,6.11,2.66,9.26,1.91,13.21Zm0,0"/></svg>