<svg id="Capa_1" data-name="Capa 1" xmlns="http://www.w3.org/2000/svg" viewBox="0 0 400 400"><defs><style>.cls-1{fill:#1e4471;}.cls-2{fill:#f4bd6e;}.cls-3{fill:#08bceb;}.cls-4{fill:#71bf4a;}.cls-5{fill:#f47521;}.cls-6{fill:#fff;}.cls-7{fill:#b35f49;}.cls-8{fill:#fbab1a;}.cls-9{fill:#fec478;}</style></defs><title>iconos2</title><circle class="cls-1" cx="200" cy="200" r="194.42"/><circle class="cls-2" cx="173.94" cy="172.03" r="97.44"/><circle class="cls-3" cx="153.79" cy="134.32" r="17.19"/><circle class="cls-4" cx="234.88" cy="161.53" r="12.51"/><circle class="cls-5" cx="140.47" cy="214.15" r="11.01"/><circle class="cls-6" cx="219.24" cy="211.26" r="8.11"/><circle class="cls-6" cx="98.76" cy="161.53" r="11.1"/><circle class="cls-6" cx="205.34" cy="110.47" r="7.88"/><circle class="cls-3" cx="170.98" cy="245.43" r="7.63"/><path class="cls-5" d="M275.42,177.51l-5.29,13.55,11,10.47c3.69-1.35,11.06,3.5,17.17,9.62l17.75-9.39,8.57-16.93C311.72,171.91,291.81,166,275.42,177.51Z"/><path class="cls-5" d="M307.94,228.37l12,7.1L332,234.12c11.55-16.42,5.58-36.36-7.38-49.29l-26.32,26.32c6.11,6.12,11,13.51,9.6,17.22Z"/><path class="cls-5" d="M204.12,278.58l-8.25-7.83-15.77,2.08c-11.53,16.4-5.6,36.3,7.32,49.24l17.64-9.49,8.68-16.83c-6.12-6.11-11-13.48-9.62-17.17Z"/><path class="cls-5" d="M231,305.35c-3.71,1.36-11.1-3.49-17.22-9.6l-26.32,26.32c12.94,13,32.88,18.92,49.29,7.38l2.09-13.8Z"/><path class="cls-7" d="M281.17,201.53,274.46,235l19.14-13.82,9.51-14.83A20.89,20.89,0,0,0,281.17,201.53Z"/><path class="cls-7" d="M307.94,228.37a20.88,20.88,0,0,0-4.83-22L274.46,235v.07Z"/><path class="cls-7" d="M204.12,278.58a20.6,20.6,0,0,0,4.89,21.9l17.34-9,11.27-19.63Z"/><path class="cls-7" d="M237.62,271.87,209,300.48a20.61,20.61,0,0,0,22,4.87l6.73-33.49Z"/><path class="cls-8" d="M274.45,235.1a66.78,66.78,0,0,0,6.72-33.57,68.29,68.29,0,0,0-5.75-24c-9.51,7.84-16.56,18.24-21.56,29.66a82.47,82.47,0,0,1-44.1,44.1c-11.42,5-21.82,12-29.66,21.56,13.46,6.57,38.32,9.12,57.59-1C241.13,264.83,267.42,238.54,274.45,235.1Z"/><path class="cls-9" d="M253.17,250.58a73.57,73.57,0,0,0-15.37,21.11l22.82-15,13.66-21.52a73.57,73.57,0,0,0-21.11,15.37Z"/><path class="cls-8" d="M302.37,255.68c11.42-5,21.82-12.05,29.67-21.56a68.52,68.52,0,0,0-57.76,1.09L237.8,271.69a68.52,68.52,0,0,0-1.09,57.76c9.51-7.85,16.56-18.25,21.56-29.67a82.57,82.57,0,0,1,44.1-44.1Z"/></svg>