<svg id="Capa_1" data-name="Capa 1" xmlns="http://www.w3.org/2000/svg" xmlns:xlink="http://www.w3.org/1999/xlink" viewBox="0 0 400 400"><defs><style>.cls-1{fill:none;}.cls-2{fill:#1e4471;}.cls-3{fill:#ce7f6a;}.cls-4{fill:#e28c71;}.cls-5{fill:#bcbec0;}.cls-6{fill:#e6e7e8;}.cls-7{fill:#fbab1a;}.cls-8{clip-path:url(#clip-path);}.cls-9{fill:#0d274d;}.cls-10{fill:#fa503c;}.cls-11{fill:#e83e29;}.cls-12{fill:#f2a48a;}.cls-13{fill:#329044;}.cls-14{fill:#6c9baa;}.cls-15{fill:#b4d7dc;}.cls-16{clip-path:url(#clip-path-2);}.cls-17{fill:#74bf4b;}.cls-18{fill:#ffb69e;}</style><clipPath id="clip-path"><rect class="cls-1" x="55.67" y="101.14" width="185.52" height="202.96"/></clipPath><clipPath id="clip-path-2"><rect class="cls-1" x="147.72" y="102.7" width="200.51" height="204.51"/></clipPath></defs><title>iconos2</title><circle class="cls-2" cx="200" cy="200" r="194.42"/><path class="cls-3" d="M132.65,175.57,93.47,163a8.67,8.67,0,0,1,5.3-16.51l36.55,11.74,23.62-7.48a8.66,8.66,0,0,1,5.23,16.52l-26.25,8.32a8.7,8.7,0,0,1-5.27,0Zm0,0"/><path class="cls-4" d="M186.46,199.35a3.47,3.47,0,0,1-2.78-1.39L150.2,153.22a3.47,3.47,0,0,1,5.56-4.16l33.47,44.74a3.47,3.47,0,0,1-2.77,5.55Zm0,0"/><rect class="cls-5" x="141.65" y="191.84" width="48.25" height="6.46"/><path class="cls-6" d="M177.05,193.57a13.32,13.32,0,0,0,13.32,13.32h25.37a13.33,13.33,0,0,0,13.32-13.32,1.73,1.73,0,0,0-1.73-1.73H178.78a1.72,1.72,0,0,0-1.73,1.73Zm0,0"/><path class="cls-7" d="M214,157c-9.27-7.74-7.07-14.49-5.57-17.18a.79.79,0,0,0-.79-1.16c-3.06.42-9.52,2.56-11,13.12a.13.13,0,0,1,0,.06c-1.9-1.67-4.62-2-6.74-1.91a.79.79,0,0,0-.32,1.49c8.59,4.21-2.37,12.52-4.38,19.61-2.6,9.18,3.4,13.14,6.75,14.59a.78.78,0,0,0,1-1c-2.18-4.88-.32-11.67,3-15.06s3.85-6.18,3.52-9.92a.79.79,0,0,1,1.25-.7c3.41,2.56,4.77,8.46,3.38,13a.78.78,0,0,0,.91,1,5.46,5.46,0,0,0,3.94-3,.79.79,0,0,1,1-.44c4.6,1.6,7,9.26,5,15.69a.79.79,0,0,0,1,1c6.15-2.27,10.68-18.5-2-29.08Zm0,0"/><path class="cls-6" d="M234.14,299.9a4.2,4.2,0,0,1-4.2,4.2H176.61a4.2,4.2,0,0,1-4.2-4.2V216.38h61.73Zm0,0"/><g class="cls-8"><path class="cls-5" d="M234.14,227.93H172.41a6.94,6.94,0,0,1,0-13.87h61.73a6.94,6.94,0,1,1,0,13.87Zm0,0"/><path class="cls-9" d="M62.11,303.31a10.39,10.39,0,0,1-5.65-13.57l17.32-42.06,1.32-31.3a10.4,10.4,0,1,1,20.78.87l-1.39,33.13a10.22,10.22,0,0,1-.78,3.53l-18,43.75a10.4,10.4,0,0,1-13.58,5.65Zm0,0"/><path class="cls-9" d="M108.05,303.87a10.42,10.42,0,0,1-8-12.33l9.6-45.29L96.76,211.16A10.4,10.4,0,1,1,116.28,204l13.9,37.9a10.4,10.4,0,0,1,.41,5.74l-10.21,48.21a10.4,10.4,0,0,1-12.33,8Zm0,0"/></g><path class="cls-10" d="M121,216.82H75.08V154.57a12.14,12.14,0,0,1,12.13-12.14h21.64A12.14,12.14,0,0,1,121,154.57Zm0,0"/><path class="cls-3" d="M116.09,119.1a18,18,0,1,1-18-18,18,18,0,0,1,18,18Zm0,0"/><path class="cls-3" d="M150.88,202.82l-34.52-2.55a8.67,8.67,0,0,1-6.92-4.39l-20.7-36.77a8.66,8.66,0,1,1,15.1-8.5l18.43,32.72,29.89,2.21a8.66,8.66,0,1,1-1.28,17.28Zm0,0"/><path class="cls-11" d="M98.71,176.82l14.76-9.11-9.63-17.1a8.67,8.67,0,0,0-15.11,8.5Zm0,0"/><path class="cls-12" d="M242.69,214.8a8.73,8.73,0,1,1-6.28-16.29l34.38-13.26,11.46-31.56a8.74,8.74,0,0,1,16.42,6L285.85,195a8.72,8.72,0,0,1-5.07,5.17L242.69,214.8Zm0,0"/><path class="cls-13" d="M298.67,159.66a8.74,8.74,0,0,0-16.42-6l-10,27.54h18.58Zm-7.84,21.57"/><path class="cls-14" d="M235,159.49l18.52,21.33a4.35,4.35,0,1,1-7.06,5l-14-24.51Zm-2.57,1.83"/><path class="cls-15" d="M229.53,148.65a50.9,50.9,0,0,0-11.08-11.21.24.24,0,0,0-.23,0,.26.26,0,0,0-.16.18c-.41,1.92-2.06,11.07,2.47,17.45,1.83,2.59,4.46,6.29,6.29,8.86a4.19,4.19,0,0,0,5.32,1.32l5.42-2.76a89,89,0,0,0-8-13.81Zm0,0"/><g class="cls-16"><path class="cls-9" d="M341.35,306.42a10.48,10.48,0,0,1-13.68-5.7L309.5,256.64a10.57,10.57,0,0,1-.78-3.55l-1.39-33.39a10.48,10.48,0,0,1,20.94-.87l1.31,31.54L347,292.74a10.47,10.47,0,0,1-5.69,13.68Zm0,0"/><path class="cls-9" d="M295.05,307a10.47,10.47,0,0,1-12.42-8.08l-10.29-48.58a10.45,10.45,0,0,1,.41-5.78l14-38.19a10.48,10.48,0,0,1,19.67,7.22l-13,35.36,9.67,45.63A10.48,10.48,0,0,1,295.05,307Zm0,0"/></g><path class="cls-17" d="M282,156.54a12.22,12.22,0,0,1,12.22-12.22h21.8a12.23,12.23,0,0,1,12.23,12.22v62.72H282Zm0,62.72"/><path class="cls-18" d="M247.19,192.4a8.73,8.73,0,1,1,2.19-17.32l30,3.79,24.74-28.63a8.73,8.73,0,0,1,13.21,11.41l-27.8,32.18a8.73,8.73,0,0,1-7.7,3l-34.61-4.39Zm0,0"/><path class="cls-13" d="M301.8,179.6l15.5-17.95a8.73,8.73,0,0,0-13.21-11.41l-14.93,17.28Zm-12.64-12.08"/><path class="cls-18" d="M320.38,111.21a18.07,18.07,0,1,0,2.77,9.59A18.07,18.07,0,0,0,320.38,111.21Z"/></svg>