<svg id="Capa_1" data-name="Capa 1" xmlns="http://www.w3.org/2000/svg" viewBox="0 0 400 400"><defs><style>.cls-1{fill:#1e4471;}.cls-2{fill:#e3241b;}.cls-3{fill:#bd1d39;}.cls-4{fill:#74bf4b;}.cls-5{fill:#3f8a38;}.cls-6{fill:#fbab2c;}.cls-7{fill:#00bceb;}</style></defs><title>iconos2</title><circle class="cls-1" cx="200" cy="200" r="194.42"/><path class="cls-2" d="M160.1,168.9c17.52,30,14.24,41,5.33,46.15s-20.06,2.63-37.58-27.38S93.09,111.56,102,106.37s40.58,32.52,58.1,62.53Z"/><path class="cls-2" d="M239.9,168.9c-17.52,30-14.24,41-5.34,46.15s20.07,2.63,37.59-27.38,34.76-76.11,25.85-81.3-40.58,32.52-58.1,62.53Z"/><path class="cls-3" d="M170.08,213.2l-46.39-79.62a3.7,3.7,0,1,0-6.4,3.73l46.39,79.62a3.7,3.7,0,1,0,6.4-3.73Z"/><path class="cls-3" d="M282.85,132.24a3.71,3.71,0,0,0-5.07,1.34L231.39,213.2a3.71,3.71,0,0,0,6.41,3.73l46.39-79.62a3.71,3.71,0,0,0-1.34-5.07Z"/><path class="cls-4" d="M190.8,169.89c12.37,39.77,7.17,51.19-2.67,54.24s-20.61-3.43-33-43.2S133.49,83.15,143.33,80.11s35.1,50,47.47,89.78Z"/><path class="cls-4" d="M209.2,169.89c-12.37,39.77-7.17,51.19,2.67,54.24s20.6-3.43,33-43.2,21.67-97.78,11.82-100.82S221.57,130.12,209.2,169.89Z"/><path class="cls-5" d="M191.63,223,158.9,117.55a3.71,3.71,0,0,0-7.08,2.2l32.74,105.49a3.7,3.7,0,0,0,3.54,2.61,3.75,3.75,0,0,0,1.09-.17,3.7,3.7,0,0,0,2.44-4.64Z"/><path class="cls-5" d="M245.73,115.11a3.71,3.71,0,0,0-4.63,2.44L208.36,223a3.72,3.72,0,0,0,2.44,4.64,3.87,3.87,0,0,0,1.1.17,3.71,3.71,0,0,0,3.54-2.61l32.73-105.49a3.7,3.7,0,0,0-2.44-4.64Z"/><path class="cls-2" d="M218.66,173.37c0,41.65-8.32,51-18.63,51s-18.66-9.39-18.69-51,8.29-99.8,18.59-99.79,18.7,58.17,18.73,99.82Z"/><path class="cls-3" d="M200,110.22a3.71,3.71,0,0,0-3.71,3.7V224.38a3.71,3.71,0,0,0,7.41,0V113.92a3.7,3.7,0,0,0-3.7-3.7Z"/><path class="cls-6" d="M326.33,165a2.5,2.5,0,0,0-2.76-2.41c-4.92.54-18.58,2.16-55.58,7-35.33,4.6-53.61,24.24-62,37.12a7.16,7.16,0,0,1-12,0c-8.37-12.88-26.65-32.52-62-37.12-37-4.82-50.66-6.44-55.58-7A2.5,2.5,0,0,0,73.67,165c-.56,17-1.24,109.91,49.73,123.59,46.79,12.56,68.8,31.25,74.83,37.12a2.54,2.54,0,0,0,3.54,0c6-5.87,28-24.56,74.83-37.12,51-13.68,50.29-106.59,49.73-123.59Zm-153.4,80.27c-3.61,9.9-21.59,12.41-40.15,5.63s-30.67-20.31-27-30.2,21.59-12.41,40.15-5.62S176.55,235.4,172.93,245.29Zm94.28,5.63c-18.55,6.78-36.53,4.27-40.14-5.63s8.49-23.41,27.05-30.19,36.53-4.27,40.15,5.62S285.77,244.13,267.21,250.92Z"/><path class="cls-7" d="M200,268.37c-15.8,0-29.35,14.58-35.15,35.37,19.17,9.27,29.53,18.24,33.38,22a2.54,2.54,0,0,0,3.54,0c3.85-3.75,14.21-12.72,33.38-22-5.8-20.79-19.36-35.37-35.15-35.37Z"/></svg>