<svg id="Capa_1" data-name="Capa 1" xmlns="http://www.w3.org/2000/svg" viewBox="0 0 400 400"><defs><style>.cls-1{fill:#1e4471;}.cls-2{fill:#e64b55;}.cls-3{fill:#50555a;}.cls-4{fill:#373c41;}.cls-5{fill:#b9b9be;}.cls-6{fill:#46738c;}.cls-7{fill:#55879b;}.cls-8{fill:#b9cdd2;}.cls-9{fill:#ffb69e;}.cls-10{fill:#3c5064;}.cls-11{fill:#ffa50a;}.cls-12{fill:#fa503c;}.cls-13{fill:#fa870a;}</style></defs><title>cyclingDistance</title><circle class="cls-1" cx="200" cy="200" r="194.42"/><path class="cls-2" d="M283.56,341.27a54.17,54.17,0,1,1,54.17-54.17A54.22,54.22,0,0,1,283.56,341.27Zm0-99.8A45.64,45.64,0,1,0,329.2,287.1,45.68,45.68,0,0,0,283.56,241.47Z"/><path class="cls-3" d="M283.56,237.2a49.9,49.9,0,1,1-49.9,49.9,49.9,49.9,0,0,1,49.9-49.9m0-7.88a57.79,57.79,0,1,0,57.79,57.78,57.85,57.85,0,0,0-57.79-57.78Z"/><path class="cls-4" d="M283.56,229.32h-.25v7.89h.25a49.9,49.9,0,0,1,0,99.8h-.25v7.89h.25a57.79,57.79,0,1,0,0-115.57Z"/><path id="SVGCleanerId_0" data-name="SVGCleanerId 0" class="cls-5" d="M283.56,273.29a13.82,13.82,0,1,0,13.82,13.81,13.83,13.83,0,0,0-13.82-13.81Z"/><path id="SVGCleanerId_0-2" data-name="SVGCleanerId 0" class="cls-5" d="M283.56,273.29a13.82,13.82,0,1,0,13.82,13.81,13.83,13.83,0,0,0-13.82-13.81Z"/><path class="cls-2" d="M116.44,341.27A54.17,54.17,0,1,1,170.6,287.1,54.23,54.23,0,0,1,116.44,341.27Zm0-99.8a45.64,45.64,0,1,0,45.63,45.63A45.68,45.68,0,0,0,116.44,241.47Z"/><path class="cls-3" d="M116.44,237.2a49.9,49.9,0,1,1-49.9,49.9,49.9,49.9,0,0,1,49.9-49.9m0-7.88a57.79,57.79,0,1,0,57.78,57.78,57.85,57.85,0,0,0-57.78-57.78Z"/><path class="cls-4" d="M116.44,229.32h-.26v7.89h.26a49.9,49.9,0,0,1,0,99.8h-.26v7.89h.26a57.79,57.79,0,0,0,0-115.57Z"/><path class="cls-5" d="M116.44,273.29a13.82,13.82,0,1,0,13.82,13.81,13.83,13.83,0,0,0-13.82-13.81Z"/><path class="cls-6" d="M175.76,286.26a6.55,6.55,0,0,1-6-4l-34.8-83.93a6.53,6.53,0,0,1,12.07-5l34.8,83.92a6.54,6.54,0,0,1-6,9Z"/><path class="cls-7" d="M175.75,286.26a6.54,6.54,0,0,1-4.82-10.94l63.65-69.65-91.75,7.57-31.56,59.95H143a6.54,6.54,0,0,1,0,13.07H100.45a6.53,6.53,0,0,1-5.78-9.58L133,204a6.52,6.52,0,0,1,5.24-3.46l111.9-9.24a6.53,6.53,0,0,1,5.36,10.91l-74.87,81.94A6.54,6.54,0,0,1,175.75,286.26Z"/><path class="cls-8" d="M161.84,202.91H118.71a9.93,9.93,0,0,1,0-19.86h43.13a9.93,9.93,0,1,1,0,19.86Z"/><path class="cls-6" d="M278.17,286.26a6.54,6.54,0,0,1-6.2-4.48l-38.11-114.7a6.54,6.54,0,0,1,4.87-8.45l29.5-6.14a6.53,6.53,0,0,1,2.66,12.79l-22.32,4.64,35.8,107.74a6.55,6.55,0,0,1-6.2,8.6Z"/><path class="cls-9" d="M170.8,293.05a14.21,14.21,0,0,1-8.37-18.28L184.26,216l-43.55-28.76a14.22,14.22,0,0,1,15.68-23.73l53,35a14.22,14.22,0,0,1,5.49,16.82l-25.77,69.32A14.21,14.21,0,0,1,170.8,293.05Z"/><path class="cls-10" d="M223.67,120.63,202.56,98.21a17.66,17.66,0,0,0-25.74,0l-50.63,53.91a18.71,18.71,0,0,0,3.54,28.54l34.92,22.42h0l12.25,8.09,20.64-20.45-12.19-8.06,37.86-37.35A17.68,17.68,0,0,0,223.67,120.63Z"/><path class="cls-11" d="M121.39,161.78a18.66,18.66,0,0,1,4.8-9.65l50.63-53.91a17.66,17.66,0,0,1,25.74,0l21.11,22.42a17.68,17.68,0,0,1-.46,24.69l-37.87,37.35Z"/><circle class="cls-9" cx="243.27" cy="84.35" r="26.15"/><path class="cls-12" d="M202.89,59.06c2.27-6.33,15-2.16,29.35-3.47,22.16-2,33.12,2.16,40.71,14.45,2.92,4.72,2.35,11.09,1.34,16.68a3.4,3.4,0,0,1-4.52,2.59C235.07,76.55,198.19,72.18,202.89,59.06Z"/><path class="cls-9" d="M218.7,164.93a11.84,11.84,0,0,1-8.41-5.38l-31-48.69a11.85,11.85,0,1,1,20-12.72l27.57,43.33,41,.82a11.85,11.85,0,0,1-.47,23.7l-47.34-1A12.28,12.28,0,0,1,218.7,164.93Z"/><path class="cls-13" d="M194.68,135l19.65-13.26-15-23.6a11.85,11.85,0,1,0-20,12.72Z"/></svg>