<svg id="Capa_1" data-name="Capa 1" xmlns="http://www.w3.org/2000/svg" viewBox="0 0 400 400"><defs><style>.cls-1{fill:#1e4471;}.cls-2{fill:#e6e7e8;}.cls-3{fill:#00bceb;}.cls-4{fill:#f04c38;}.cls-5{fill:#e1170b;opacity:0.5;}.cls-6{fill:none;stroke:#fff;stroke-linecap:round;stroke-linejoin:round;stroke-width:10px;}.cls-7{fill:#fff;}</style></defs><title>iconos2</title><circle class="cls-1" cx="200" cy="200" r="194.42"/><path class="cls-2" d="M253.09,81.38a14.37,14.37,0,0,0-13.38-9.13H160.29a14.37,14.37,0,0,0-13.38,9.13l-10.16,25.94h126.5Z"/><path class="cls-2" d="M253.09,329.38a14.37,14.37,0,0,1-13.38,9.13H160.29a14.37,14.37,0,0,1-13.38-9.13l-10.16-25.94h126.5Z"/><rect class="cls-3" x="101.85" y="105.63" width="196.3" height="199.49" rx="38.84"/><path class="cls-4" d="M206.37,242.69c-.09-.3-7.75-22.75,8.83-29.09,16.06-6.14,25.79,6.28,27.69,9,.22.3.43.6.66.89,1.61,2.06,8.79,12.5,5.35,31.19-.17.92-.48,1.8-.68,2.71C247,263,244.82,280.78,231,270.59,230.69,270.35,210.61,255.88,206.37,242.69Z"/><path class="cls-4" d="M271.21,242.69c.1-.3,7.75-22.75-8.83-29.09-16-6.14-25.79,6.28-27.69,9-.21.3-.42.6-.65.89-1.61,2.06-8.79,12.5-5.36,31.19.17.92.48,1.8.68,2.71,1.22,5.58,3.4,23.38,17.22,13.19C246.9,270.35,267,255.88,271.21,242.69Z"/><path class="cls-5" d="M238.79,273.67c7-.4,9.94-18.06,10.11-19,3.44-18.69-3.74-29.13-5.35-31.19-.23-.29-.44-.59-.66-.89a27.73,27.73,0,0,0-4.1-4.6,28.22,28.22,0,0,0-4.1,4.6c-.21.3-.42.6-.65.89-1.61,2.06-8.79,12.5-5.36,31.19C228.85,255.61,231.81,273.27,238.79,273.67Z"/><line class="cls-6" x1="126.94" y1="261.79" x2="155.05" y2="261.79"/><line class="cls-6" x1="170.11" y1="261.79" x2="198.23" y2="261.79"/><rect class="cls-7" x="118.21" y="136.43" width="9.33" height="50.61" rx="4.67"/><rect class="cls-7" x="156.03" y="136.2" width="9.33" height="50.61" rx="4.67"/><rect class="cls-7" x="189.72" y="136.2" width="9.33" height="50.61" rx="4.67"/><path class="cls-7" d="M144.09,185.83a4.71,4.71,0,0,1-3.4-1.44L122,165a4.72,4.72,0,0,1,0-6.53L140.73,139a4.71,4.71,0,1,1,6.78,6.53L132,161.73l15.52,16.13a4.71,4.71,0,0,1-3.39,8Z"/><path class="cls-7" d="M177.56,167.06a4.72,4.72,0,0,1-3.7-1.79L157,143.88a4.71,4.71,0,0,1,7.39-5.83l13.17,16.7,13.13-16.66a4.71,4.71,0,0,1,7.4,5.83l-16.83,21.35A4.73,4.73,0,0,1,177.56,167.06Z"/><line class="cls-6" x1="210.51" y1="181.75" x2="238.62" y2="181.75"/><line class="cls-6" x1="253.68" y1="181.75" x2="281.79" y2="181.75"/></svg>