<svg id="Capa_1" data-name="Capa 1" xmlns="http://www.w3.org/2000/svg" viewBox="0 0 400 400"><defs><style>.cls-1{fill:#1e4471;}.cls-2{fill:#fece85;}.cls-3{fill:#754c29;}.cls-4{fill:#fff;}.cls-5{fill:#71bf4a;}.cls-6{fill:#fbab1a;}.cls-7{fill:#08bceb;}</style></defs><title>iconos2</title><circle class="cls-1" cx="200" cy="200" r="194.42"/><path class="cls-2" d="M200,70A130,130,0,1,0,330,200,130,130,0,0,0,200,70Zm0,165.82A35.83,35.83,0,1,1,235.83,200,35.87,35.87,0,0,1,200,235.83Z"/><path class="cls-3" d="M330,200v29.82a15.64,15.64,0,0,1-4.6,11.09,15.22,15.22,0,0,1-2.71,2.16,15.52,15.52,0,0,1-8.38,2.44,15.7,15.7,0,0,1-15.7-15.69V215.69a15.69,15.69,0,0,0-31.38,0V256a15.7,15.7,0,0,1-31.39,0V200a35.83,35.83,0,0,0-71.66,0A47.08,47.08,0,1,1,70,200a130,130,0,0,1,260,0Z"/><path class="cls-4" d="M94.16,199.56a3.91,3.91,0,0,1-3.92-3.92V180a3.92,3.92,0,0,1,7.84,0v15.69A3.91,3.91,0,0,1,94.16,199.56Z"/><path class="cls-5" d="M301,179.69a3.93,3.93,0,0,1-3.93-3.93V160.07a3.93,3.93,0,0,1,7.85,0v15.69A3.93,3.93,0,0,1,301,179.69Z"/><path class="cls-6" d="M129,166.48a3.91,3.91,0,0,1-3.81-3l-3.58-15.28a3.92,3.92,0,1,1,7.64-1.79l3.58,15.28a4,4,0,0,1-3.83,4.82Z"/><path class="cls-7" d="M189.85,145.44a3.93,3.93,0,0,1-3.82-3l-3.58-15.28a3.92,3.92,0,1,1,7.64-1.79l3.58,15.28a3.92,3.92,0,0,1-2.92,4.71A4,4,0,0,1,189.85,145.44Z"/><path class="cls-6" d="M255.82,134.52a3.92,3.92,0,0,1-1.09-7.69l15.07-4.37A3.92,3.92,0,1,1,272,130l-15.07,4.36A3.79,3.79,0,0,1,255.82,134.52Z"/><path class="cls-5" d="M119.67,223.35a3.93,3.93,0,0,1-3.44-5.81l7.57-13.75a3.92,3.92,0,1,1,6.87,3.78l-7.56,13.75A3.93,3.93,0,0,1,119.67,223.35Z"/><path class="cls-7" d="M259.57,180.22a3.92,3.92,0,0,1-3.44-5.81l7.57-13.75a3.93,3.93,0,0,1,6.88,3.78L263,178.19A3.93,3.93,0,0,1,259.57,180.22Z"/><path class="cls-5" d="M149,118.54a3.93,3.93,0,0,1-2.79-6.69l11.05-11.14a3.92,3.92,0,1,1,5.57,5.52l-11,11.15A3.94,3.94,0,0,1,149,118.54Z"/><path class="cls-4" d="M231.43,112.16a3.87,3.87,0,0,1-2.38-.81l-12.46-9.54a3.92,3.92,0,0,1,4.77-6.23l12.46,9.55a3.92,3.92,0,0,1-2.39,7Z"/></svg>