<svg id="Capa_1" data-name="Capa 1" xmlns="http://www.w3.org/2000/svg" viewBox="0 0 400 400"><defs><style>.cls-1{fill:#1e4471;}.cls-2{fill:#c97840;}.cls-3{fill:#ae632c;}.cls-4{fill:#ffa73c;}.cls-5{fill:#fdc661;}.cls-6{fill:#351a0a;}.cls-7{fill:#281408;}.cls-8{fill:#412816;}.cls-10,.cls-9{fill:none;stroke:#fff;stroke-width:7px;}.cls-9{stroke-miterlimit:10;}.cls-10{stroke-linecap:round;stroke-linejoin:round;}</style></defs><title>iconos2</title><circle class="cls-1" cx="200" cy="200" r="194.42"/><path class="cls-2" d="M162.21,88c-2.44.88-59.81,21.9-65.35,66.18-.61,4.89-1.23,10.64-1.89,16.73-1.76,16.23-3.75,34.62-6.3,44.24-1.4,5.3-2.82,9.56-4.19,13.69-3.13,9.46-5.84,17.64-5.84,31.39a46.54,46.54,0,1,0,93.07,0Z"/><path class="cls-3" d="M237.79,88c2.44.88,59.81,21.9,65.35,66.18.61,4.89,1.23,10.64,1.89,16.73,1.76,16.23,3.75,34.62,6.3,44.24,1.4,5.3,2.82,9.56,4.19,13.69,3.13,9.46,5.84,17.64,5.84,31.39a46.54,46.54,0,1,1-93.07,0Z"/><path class="cls-4" d="M279.3,143.22A80,80,0,0,0,200,64l-5.06,106.19L200,264a31.24,31.24,0,0,0,22.4,9.39h.16a32.44,32.44,0,0,0,32.18-29.84l.83-13.23,15.19-37,.05-.13a128.74,128.74,0,0,0,8.49-49.94Z"/><path class="cls-5" d="M200,64a80,80,0,0,0-79.3,79.22,128.74,128.74,0,0,0,8.49,49.94l15.24,37.15.82,13.1v.13a32.44,32.44,0,0,0,32.18,29.84h.16A31.23,31.23,0,0,0,200,264V64Z"/><path class="cls-6" d="M160.88,156.76h0a7.11,7.11,0,0,1,7.11,7.11h0a7.11,7.11,0,0,1-7.11,7.11h0a7.11,7.11,0,0,1-7.12-7.11h0A7.11,7.11,0,0,1,160.88,156.76Z"/><path class="cls-7" d="M239.12,156.76h0a7.11,7.11,0,0,1,7.12,7.11h0a7.11,7.11,0,0,1-7.12,7.11h0a7.11,7.11,0,0,1-7.11-7.11h0A7.11,7.11,0,0,1,239.12,156.76Z"/><path class="cls-7" d="M205.76,206.57H200l-6.25,16.89L200,251.1l15.47-9.48a18.87,18.87,0,0,0-9.71-35.05Z"/><path class="cls-8" d="M194.24,206.57a18.87,18.87,0,0,0-9.71,35.05L200,251.1V206.57Z"/><circle class="cls-9" cx="239.4" cy="163.59" r="34.76"/><circle class="cls-9" cx="160.6" cy="163.59" r="34.76"/><line class="cls-10" x1="188.21" y1="163.59" x2="211.79" y2="163.59"/></svg>