<svg id="Capa_1" data-name="Capa 1" xmlns="http://www.w3.org/2000/svg" viewBox="0 0 400 400"><defs><style>.cls-1{fill:#1e4471;}.cls-2{fill:#c5d3dd;}.cls-3{fill:#e59725;}.cls-4{fill:#fbab2c;}.cls-5{fill:#238aca;}.cls-6{fill:#bbf2ff;}.cls-7{fill:#00bceb;}.cls-8{fill:#fff3ef;}.cls-9{fill:#b6c4cf;}.cls-10{fill:#678d98;}.cls-11{fill:#3e5959;}</style></defs><title>iconos2</title><circle class="cls-1" cx="200" cy="200" r="194.42"/><path class="cls-2" d="M102.1,210.89H42.69a4,4,0,1,1,0-8H102.1a4,4,0,1,1,0,8Z"/><path class="cls-2" d="M104.41,235.94H59.26a4,4,0,1,1,0-8h45.15a4,4,0,1,1,0,8Z"/><path class="cls-2" d="M113.44,256.87H86.05a4,4,0,1,1,0-8h27.39a4,4,0,1,1,0,8Z"/><path class="cls-2" d="M108.46,185.84H63.31a4,4,0,1,1,0-8h45.15a4,4,0,1,1,0,8Z"/><path class="cls-2" d="M117.49,164.91H90.1a4,4,0,1,1,0-8h27.39a4,4,0,1,1,0,8Z"/><path class="cls-3" d="M155.73,136.45l-20.28-23.6a4,4,0,0,0-5.63-.42L117.2,123.28a4,4,0,0,0-.42,5.63l20.28,23.59a4,4,0,0,0,3,1.39,4,4,0,0,0,2.6-1l12.62-10.86a4,4,0,0,0,.42-5.62Z"/><path class="cls-4" d="M143.87,105.62l-8.57-10a4,4,0,0,0-5.62-.43l-29.46,25.33a4,4,0,0,0-.42,5.62l8.56,10a4,4,0,0,0,5.63.42l29.45-25.33a4,4,0,0,0,.43-5.62Z"/><path class="cls-3" d="M287.71,126a4,4,0,0,0-1.37-2.73l-12.63-10.85a4,4,0,0,0-5.62.42l-20.29,23.6a4,4,0,0,0,.43,5.62l12.62,10.86a4,4,0,0,0,5.63-.43l20.28-23.59A4,4,0,0,0,287.71,126Z"/><path class="cls-4" d="M303.32,120.56,273.86,95.23a4,4,0,0,0-5.63.43l-8.56,10a4,4,0,0,0,.42,5.62l29.46,25.33a4,4,0,0,0,2.6,1h.3a4,4,0,0,0,2.73-1.38l8.56-10a4,4,0,0,0-.42-5.62Z"/><path class="cls-5" d="M190.09,89.12h24.48v35H190.09Z"/><path class="cls-6" d="M232.3,66.75H172.36a7.64,7.64,0,0,0-7.64,7.64v9.28a7.64,7.64,0,0,0,7.64,7.64H232.3a7.64,7.64,0,0,0,7.64-7.64V74.39A7.64,7.64,0,0,0,232.3,66.75Zm-13,24a7.34,7.34,0,0,1-1.88.5ZM217.85,66.9a7.51,7.51,0,0,1,1.17.34Z"/><path class="cls-7" d="M202.33,110.11c-1.52,0-3,0-4.53.1-.31,0-.59,0-.82,0a102.59,102.59,0,0,0-21,201.6h0A103.11,103.11,0,0,0,194.35,315c.88.07,1.77.12,2.65.15,1.77.09,3.54.14,5.33.14a102.57,102.57,0,0,0,0-205.14Z"/><circle class="cls-8" cx="202.33" cy="212.68" r="79.88"/><path class="cls-9" d="M202.35,155.63a3.71,3.71,0,0,1-3.72-3.71V141.66a3.72,3.72,0,0,1,7.43,0v10.26A3.71,3.71,0,0,1,202.35,155.63Z"/><path class="cls-9" d="M245.62,173.36A3.71,3.71,0,0,1,243,167l7.25-7.26A3.71,3.71,0,0,1,255.5,165l-7.25,7.26A3.73,3.73,0,0,1,245.62,173.36Z"/><path class="cls-9" d="M273.94,216.51H263.69a3.72,3.72,0,1,1,0-7.43h10.25a3.72,3.72,0,0,1,0,7.43Z"/><path class="cls-9" d="M253.2,267a3.7,3.7,0,0,1-2.62-1.09l-7.25-7.25a3.71,3.71,0,0,1,5.25-5.25l7.25,7.25A3.72,3.72,0,0,1,253.2,267Z"/><path class="cls-9" d="M202.81,288.1a3.71,3.71,0,0,1-3.71-3.71V274.13a3.71,3.71,0,0,1,7.42,0v10.26A3.71,3.71,0,0,1,202.81,288.1Z"/><path class="cls-9" d="M152.28,267.36a3.71,3.71,0,0,1-2.63-6.33l7.25-7.26a3.72,3.72,0,1,1,5.26,5.25l-7.26,7.26A3.69,3.69,0,0,1,152.28,267.36Z"/><path class="cls-9" d="M141.47,217H131.21a3.72,3.72,0,0,1,0-7.43h10.26a3.72,3.72,0,0,1,0,7.43Z"/><path class="cls-9" d="M159.2,173.69a3.66,3.66,0,0,1-2.62-1.09l-7.26-7.25a3.72,3.72,0,1,1,5.26-5.25l7.25,7.25a3.72,3.72,0,0,1-2.63,6.34Z"/><path class="cls-10" d="M202.33,210.89a4,4,0,0,1-4-4V180.08a4,4,0,1,1,8,0V206.9A4,4,0,0,1,202.33,210.89Z"/><path class="cls-10" d="M235.89,249.3a4,4,0,0,1-2.82-1.16l-29-29a4,4,0,1,1,5.64-5.64l29,29a4,4,0,0,1-2.82,6.81Z"/><path class="cls-11" d="M202.86,220.3a8,8,0,1,1,8-8A8,8,0,0,1,202.86,220.3Z"/></svg>