<svg id="Capa_1" data-name="Capa 1" xmlns="http://www.w3.org/2000/svg" viewBox="0 0 400 400"><defs><style>.cls-1{fill:#1e4471;}.cls-2{fill:#231f20;}.cls-3{fill:#ba6746;}.cls-4{fill:#55696e;}.cls-5{fill:#748488;}.cls-6{fill:#ffda52;}</style></defs><title>iconos2</title><circle class="cls-1" cx="200" cy="200" r="194.42"/><circle class="cls-2" cx="167.93" cy="105.62" r="15.85"/><circle class="cls-2" cx="164.46" cy="125.2" r="18.04"/><circle class="cls-2" cx="230.31" cy="105.62" r="15.85"/><circle class="cls-2" cx="233.79" cy="125.2" r="18.04"/><circle class="cls-2" cx="199.11" cy="103.86" r="33.03"/><circle class="cls-3" cx="199.11" cy="114.13" r="28.42"/><path class="cls-3" d="M182.72,151.59v0a16.54,16.54,0,1,0,32.73.62l-.08-.64Z"/><path class="cls-3" d="M129.3,199.5l-20.88-13.8A13.71,13.71,0,0,0,93.3,208.58l42.16,27.86A13.72,13.72,0,0,0,156.73,225V212.49Z"/><path class="cls-3" d="M310.49,187.45a13.72,13.72,0,0,0-19.05-3.65l-22.55,15.31-27.42,13.38V225a13.72,13.72,0,0,0,21.41,11.34l44-29.85a13.71,13.71,0,0,0,3.64-19Z"/><path class="cls-4" d="M146.69,298.9A16.45,16.45,0,0,1,160,279.78l28.62-5.18a16.46,16.46,0,0,1,11.53-30.25l80,14.76a16.46,16.46,0,0,1-.06,32.38L165.82,312.17a16.46,16.46,0,0,1-19.13-13.27Z"/><path class="cls-5" d="M220.36,328.32,116.05,293.6A16.46,16.46,0,0,1,117.21,262l70.17-17.79a16.45,16.45,0,1,1,8.08,31.9l-15.68,4,51,17a16.46,16.46,0,0,1-10.4,31.23Z"/><path class="cls-6" d="M268.89,183.88c-.09-17.81-14.87-32.29-32.95-32.29H215.35c-.25,8.38-8.14,15.32-16.36,15.32-8.81,0-15.42-6.92-16.27-15.32H162.31c-18.11,0-32.92,14.48-33,32.29V199.5l18.4,13h9V184c0-2.61,2.68-5,5.58-5h.34v74.47a10.12,10.12,0,0,0,10.13,10.13h52.65a10.14,10.14,0,0,0,10.14-10.15L235.46,179h.48c2.87,0,5.5,2.37,5.53,5v28.5h8.09l19.33-13.38V183.88Z"/><path class="cls-2" d="M199.11,83.71s-6.51,22.93-28.42,28.42C170.69,112.13,170.18,85.47,199.11,83.71Z"/><path class="cls-2" d="M199,83.71s6.51,22.93,28.42,28.42C227.45,112.13,228,85.47,199,83.71Z"/></svg>