<svg id="Capa_1" data-name="Capa 1" xmlns="http://www.w3.org/2000/svg" viewBox="0 0 400 400"><defs><style>.cls-1{fill:#1e4471;}.cls-2{fill:#ffab8f;}.cls-3{fill:#fbab2c;}.cls-4{fill:#0d274d;}.cls-5{fill:#46738c;}.cls-6{fill:#3c4646;}.cls-7{fill:#415050;}.cls-8{fill:#fff;}.cls-9{fill:#939598;}.cls-10{fill:#738c96;}.cls-11{fill:#fa503c;}.cls-12{fill:#ffb69e;}</style></defs><title>iconos2</title><circle class="cls-1" cx="200" cy="200" r="194.42"/><path class="cls-2" d="M159.48,173.64l-46-2.9c-13.49-.85-17.57-18.85-5.76-25.43l72.81-40.56a13.59,13.59,0,0,1,13.22,23.74l-32.38,18a13.59,13.59,0,0,1-1.84,27.11Z"/><path class="cls-3" d="M199,110a13.58,13.58,0,0,0-18.48-5.26L147,123.4l16.94,21.67,15.68-8.73,14.08-7.85A13.58,13.58,0,0,0,199,110Z"/><path class="cls-4" d="M264.3,341.54l-62.42-46.25A17,17,0,0,1,196.34,275l22-52.22a17,17,0,0,1,31.3,13.2l-16.84,39.92,51.71,38.31a17,17,0,0,1-20.23,27.29Z"/><path class="cls-4" d="M129.82,344.88A17,17,0,0,1,113,325.6l11.17-82a17,17,0,0,1,8.33-12.42L188.09,199a17,17,0,1,1,17,29.41l-48.42,28-10,73.77A17,17,0,0,1,129.82,344.88Z"/><path class="cls-3" d="M206.51,230H251V124.07c0-11.4-3.3-20.26-14.7-20.26l-42.75-.38A20.64,20.64,0,0,0,173,124.07V196.4A33.56,33.56,0,0,0,206.51,230Z"/><path class="cls-2" d="M236.3,82a30.56,30.56,0,1,1-30.56-30.55A30.56,30.56,0,0,1,236.3,82Z"/><path class="cls-5" d="M206.55,107.29h-9.77v-2.73a1.88,1.88,0,0,1,1.88-1.88h6a1.88,1.88,0,0,1,1.88,1.88v2.73Z"/><path class="cls-6" d="M207,150.24h-50.5a5.67,5.67,0,0,1-5.67-5.67V112a5.67,5.67,0,0,1,5.67-5.67H207a5.67,5.67,0,0,1,5.67,5.67v32.6A5.67,5.67,0,0,1,207,150.24Z"/><path class="cls-7" d="M175.47,99.79h12.61v11.86H175.47Z"/><path class="cls-8" d="M170.58,86.9H193V99.79H170.58Z"/><path class="cls-9" d="M193,103.29H170.58a3.5,3.5,0,0,1-3.49-3.5V86.9a3.5,3.5,0,0,1,3.49-3.5H193a3.5,3.5,0,0,1,3.5,3.5V99.79A3.5,3.5,0,0,1,193,103.29Zm-18.88-7h15.39V90.4H174.08Z"/><path class="cls-10" d="M181.77,145.87A17.84,17.84,0,1,1,199.61,128,17.87,17.87,0,0,1,181.77,145.87Zm0-28.69A10.85,10.85,0,1,0,192.62,128,10.86,10.86,0,0,0,181.77,117.18Z"/><path class="cls-11" d="M162.79,115.38A2.79,2.79,0,1,1,160,112.6,2.77,2.77,0,0,1,162.79,115.38Z"/><path class="cls-2" d="M247.22,168.14l-40-54.31a13.58,13.58,0,0,1,21.87-16.12l4.74,6.44a13.58,13.58,0,0,1,15.2,7.17l21.3,42.7a13.58,13.58,0,0,1-23.09,14.12Z"/><path class="cls-3" d="M233.69,136H261.3L249,111.32a13.58,13.58,0,0,0-15.2-7.17Z"/><path class="cls-12" d="M247.22,168.14l-40-54.31a13.58,13.58,0,0,1,21.87-16.12l40,54.31a13.58,13.58,0,1,1-21.87,16.12Z"/><path class="cls-12" d="M159.48,173.64l-46-2.9a13.59,13.59,0,1,1,1.71-27.12l46.05,2.9a13.59,13.59,0,1,1-1.71,27.12Z"/></svg>