<svg id="Capa_1" data-name="Capa 1" xmlns="http://www.w3.org/2000/svg" viewBox="0 0 400 400"><defs><style>.cls-1{fill:#1e4471;}.cls-2{fill:#ffb69e;}.cls-3{fill:#0d274d;}.cls-4{fill:#82be50;}.cls-5{fill:#6eaa50;}</style></defs><title>plank</title><circle class="cls-1" cx="200" cy="200" r="194.42"/><path class="cls-2" d="M64.32,219.69a11.8,11.8,0,0,0-8.17,14.55h0A11.79,11.79,0,0,0,70.7,242.4l77.59-21.8-6-22.83Z"/><path class="cls-3" d="M208.66,191.39h0a11.8,11.8,0,0,0-14.55-8.17l-51.79,14.55,6,22.83,52.2-14.67A11.79,11.79,0,0,0,208.66,191.39Z"/><path class="cls-2" d="M60,239.92a11.81,11.81,0,0,0-7.25,15h0a11.8,11.8,0,0,0,15,7.25l76.09-26.56-7.36-22.42Z"/><path class="cls-3" d="M202.28,202.74h0a11.8,11.8,0,0,0-15-7.25l-50.78,17.73,7.36,22.42L195,217.77A11.81,11.81,0,0,0,202.28,202.74Z"/><circle class="cls-2" cx="323.33" cy="188.82" r="21.64" transform="translate(33.69 426.11) rotate(-69.61)"/><path class="cls-4" d="M183.11,170.36l-2.68,57.45h96.16A12.94,12.94,0,0,0,289.68,215l.34-29.42a13,13,0,0,0-12.81-13.09Z"/><path class="cls-5" d="M267,218.05l19.89-1.11-.4-27.64a10,10,0,1,0-19.91.29Z"/><path class="cls-2" d="M268,216.43h19.75a0,0,0,0,1,0,0v40a9.87,9.87,0,0,1-9.87,9.87h0a9.87,9.87,0,0,1-9.87-9.87v-40a0,0,0,0,1,0,0Z" transform="translate(-11.38 13.76) rotate(-2.78)"/><rect class="cls-2" x="293.47" y="220.8" width="19.75" height="68.82" rx="9.87" transform="translate(63.15 570.58) rotate(-92.78)"/></svg>