<svg id="Capa_1" data-name="Capa 1" xmlns="http://www.w3.org/2000/svg" xmlns:xlink="http://www.w3.org/1999/xlink" viewBox="0 0 400 400"><defs><style>.cls-1{fill:none;}.cls-2{clip-path:url(#clip-path);}.cls-3{fill:#1e4471;}.cls-4{fill:#ba6746;}.cls-5{fill:#3c5a73;}.cls-6{fill:#fa503c;}.cls-7{fill:#fa735f;}</style><clipPath id="clip-path"><circle class="cls-1" cx="200" cy="200" r="194.42"/></clipPath></defs><title>pushUps</title><g class="cls-2"><circle class="cls-3" cx="200" cy="200" r="194.42"/></g><path class="cls-4" d="M53,243.47a14.19,14.19,0,0,1,7.21-18.73l60-26.59,62.27-45a14.19,14.19,0,0,1,16.63,23L135.56,222a14.82,14.82,0,0,1-2.56,1.48L71.69,250.68A14.19,14.19,0,0,1,53,243.47Z"/><path class="cls-5" d="M203.77,155A14.19,14.19,0,0,0,184,151.82L136.91,186l13.9,25,20.62-14.91,27.61-20C205.39,171.53,208.36,161.35,203.77,155Z"/><path class="cls-6" d="M195.1,148.24a18.7,18.7,0,0,0-8.65,2.14l-15,45.7,104.39,11.21a12.57,12.57,0,0,0,13.9-12.52l-.06-34.13a12.56,12.56,0,0,0-12.58-12.54Z"/><path class="cls-4" d="M267.79,245.43,246.54,211a10.12,10.12,0,0,1-.58-9.55l20.59-44.78a10.12,10.12,0,1,1,18.39,8.46L266.62,205,285,234.79a10.12,10.12,0,0,1-17.22,10.64Z"/><path class="cls-7" d="M275.23,186.27l9.71-21.12a10.12,10.12,0,0,0-18.39-8.46l-10.94,23.8Z"/><circle class="cls-4" cx="324.5" cy="172.27" r="23.75" transform="translate(-1.36 2.59) rotate(-0.46)"/></svg>