<svg id="Capa_1" data-name="Capa 1" xmlns="http://www.w3.org/2000/svg" viewBox="0 0 400 400"><defs><style>.cls-1{fill:#1e4471;}.cls-2{fill:#74bf4b;}.cls-3{fill:#c3ebb0;}</style></defs><title>iconos2</title><circle class="cls-1" cx="200" cy="200" r="194.42"/><path class="cls-2" d="M285.19,140.68a4.16,4.16,0,0,0,5.85-5c-7.33-23-30.35-78.33-82.83-81.13-59.8-3.18-77.81,34.39-72,54.74l7,13.84c3.19,10.18,13.44,28.19,45.94,27.21,41.88-1.26,60.76-27.16,96-9.68Z"/><path class="cls-2" d="M311.91,189.1l-15.48-.86c-10.41-2.33-31.13-2.46-46.53,26.18-19.85,36.9-6.86,66.2-39.64,88a4.17,4.17,0,0,0,1.4,7.56c23.62,5.17,83,12.88,111.67-31.18,32.66-50.19,9.12-84.57-11.42-89.7Z"/><path class="cls-2" d="M104.43,155.58A4.16,4.16,0,0,0,97.19,153c-16.29,17.87-52.66,65.44-28.84,112.3,27.14,53.38,68.68,50.18,83.4,35l8.48-13c7.22-7.85,17.7-25.72.6-53.38C138.8,198.27,106.93,194.87,104.43,155.58Z"/><path class="cls-3" d="M117.14,131.88a4.39,4.39,0,0,0-1.64,3.37l2.85,3.56a4.34,4.34,0,0,0,6.5.32c11.05-11.35,48-45,89.26-35.44a2.09,2.09,0,0,0,2.11-.65C199.28,95.35,167,92,117.14,131.88Z"/><path class="cls-3" d="M117.87,132c49.1-39.27,80.94-36,97.59-28.36a2.19,2.19,0,0,0,.26-3.89C200.88,90.76,167.66,82,113.24,125.5a4.33,4.33,0,0,0-.67,6.09l3.8,4.75a4.34,4.34,0,0,1,1.5-4.39Z"/><path class="cls-3" d="M309.39,161.1a4.33,4.33,0,0,0-4.94-3.62l-4.75.72a4.3,4.3,0,0,0-1,4.17c4.29,15.25,15,64.08-13.94,95a2.08,2.08,0,0,0-.32,2.54l.17.27c15-10.36,34.41-36.13,24.82-99.11Z"/><path class="cls-3" d="M285.28,257.4c28.9-30.95,18.23-79.78,13.94-95a4.34,4.34,0,0,1,1.13-4.27l-5.05.77a4.33,4.33,0,0,0-3.52,5.46c4.3,15.25,15,64.09-13.94,95a2.18,2.18,0,0,0,2.65,3.39,48.84,48.84,0,0,0,4.47-2.81A2.09,2.09,0,0,1,285.28,257.4Z"/><path class="cls-3" d="M183.26,295.22c-15.36-3.9-63-19.08-75.32-59.59a2.13,2.13,0,0,0-2.5-1.5,2.07,2.07,0,0,1,1.49,1.14c2.14,18.47,15.87,47.42,74.07,70.16a4.37,4.37,0,0,0,3.58-.19l1.65-4.24a4.33,4.33,0,0,0-3-5.78Z"/><path class="cls-3" d="M181,304.65c-57.56-22.49-71.15-51.12-73.26-69.39a2.17,2.17,0,0,0-4.1,1c-.33,17.32,8.66,50.49,73.58,75.85a4.34,4.34,0,0,0,5.61-2.47l2.1-5.37A4.32,4.32,0,0,1,181,304.65Z"/></svg>