<svg id="Capa_1" data-name="Capa 1" xmlns="http://www.w3.org/2000/svg" viewBox="0 0 400 400"><defs><style>.cls-1{fill:#1e4471;}.cls-2{fill:#e29764;}.cls-3{fill:#ffd87c;stroke:#f05123;stroke-linecap:round;stroke-linejoin:round;stroke-width:19px;}.cls-4{fill:#f9bb91;}</style></defs><title>iconos2</title><circle class="cls-1" cx="200" cy="200" r="194.42"/><path class="cls-2" d="M133.45,170.81l14.28-33.47H127.47a18.32,18.32,0,0,0-13.77,6.25l-36,41.15H55.64v57.9h79.41l-10.83-71.83Z"/><line class="cls-3" x1="172.54" y1="83.82" x2="99.75" y2="287.86"/><rect class="cls-4" x="203.42" y="224.03" width="115.25" height="20.27" rx="8.09"/><rect class="cls-4" x="262.48" y="227.41" width="88.44" height="20.27" rx="8.09" transform="translate(-81.2 242.52) rotate(-38.49)"/><rect class="cls-4" x="203.42" y="203.76" width="115.25" height="20.27" rx="8.09"/><rect class="cls-4" x="203.42" y="183.5" width="115.25" height="20.27" rx="8.09"/><rect class="cls-4" x="215.67" y="163.23" width="103" height="20.27" rx="8.09"/><rect class="cls-4" x="282.83" y="163.23" width="47.42" height="81.06" rx="18.94"/><rect class="cls-2" x="92.88" y="221.48" width="87.35" height="21.16" rx="8.45"/><rect class="cls-2" x="92.88" y="200.76" width="90.58" height="21.16" rx="8.45"/><rect class="cls-2" x="92.88" y="180.05" width="95.81" height="21.16" rx="8.45"/><rect class="cls-2" x="96.63" y="160.23" width="101.01" height="21.16" rx="8.45"/><polygon class="cls-4" points="308.54 180.05 360.03 180.05 360.03 237.55 324.19 237.55 308.54 180.05"/></svg>