<svg id="Capa_1" data-name="Capa 1" xmlns="http://www.w3.org/2000/svg" xmlns:xlink="http://www.w3.org/1999/xlink" viewBox="0 0 400 400"><defs><style>.cls-1{fill:none;}.cls-2{clip-path:url(#clip-path);}.cls-3{fill:#1e4471;}.cls-4{fill:#ffb69e;}.cls-5{fill:#4699f2;}.cls-6{fill:#5f6e9b;}.cls-7{fill:#414b82;}.cls-8{fill:#64afff;}.cls-9{fill:#fa503c;}</style><clipPath id="clip-path"><circle class="cls-1" cx="200" cy="200" r="194.42"/></clipPath></defs><title>soccer</title><g class="cls-2"><circle class="cls-3" cx="200" cy="200" r="194.42"/></g><path class="cls-4" d="M170.48,184.28l-30.49-57a13.37,13.37,0,0,1,9.9-19.53l56.71-8.07a13.36,13.36,0,0,1,3.77,26.46l-37.81,5.38L194,171.67a13.36,13.36,0,1,1-23.56,12.61Z"/><path class="cls-5" d="M221.71,111A13.36,13.36,0,0,0,206.6,99.67L176.17,104l4,26.43,30.25-4.31A13.35,13.35,0,0,0,221.71,111Z"/><path class="cls-6" d="M101.17,291.75a15.56,15.56,0,0,1,10.3-19.45l55.18-17-12.81-36.48a15.57,15.57,0,1,1,29.37-10.32l18.17,51.76a15.57,15.57,0,0,1-10.1,20l-70.65,21.77A15.58,15.58,0,0,1,101.17,291.75Z"/><path class="cls-7" d="M252.79,358a15.57,15.57,0,0,1-15.35-13.08l-11.22-69.19L184.6,210.35a15.57,15.57,0,0,1,26.26-16.72l43.34,68.08a15.52,15.52,0,0,1,2.24,5.86l11.73,72.36a15.57,15.57,0,0,1-12.87,17.86A16.64,16.64,0,0,1,252.79,358Z"/><path class="cls-8" d="M230.12,220a15.76,15.76,0,0,1-20.35,9.11l-55.69-21.26,36.46-95.51a19.92,19.92,0,0,1,25.72-11.5l33.2,12.67A19.92,19.92,0,0,1,261,139.24Z"/><path class="cls-4" d="M281.45,71.5A29.5,29.5,0,1,1,252,42,29.49,29.49,0,0,1,281.45,71.5Z"/><path class="cls-4" d="M282.83,211.43l-51.71-13.29a13.37,13.37,0,0,1-9.29-8.55l-21.4-61.47a13.36,13.36,0,1,1,25.24-8.78l19,54.69,44.77,11.51a13.37,13.37,0,0,1-6.65,25.89Z"/><path class="cls-5" d="M209,152.8l25.74-7.36-9.09-26.1a13.36,13.36,0,1,0-25.24,8.78Z"/><path class="cls-9" d="M221.59,329.76a28.23,28.23,0,1,1-28.23-28.23A28.23,28.23,0,0,1,221.59,329.76Z"/></svg>