<svg id="Capa_1" data-name="Capa 1" xmlns="http://www.w3.org/2000/svg" xmlns:xlink="http://www.w3.org/1999/xlink" viewBox="0 0 400 400"><defs><style>.cls-1{fill:none;}.cls-2{clip-path:url(#clip-path);}.cls-3{fill:#1e4471;}.cls-4{fill:#47568c;}.cls-5{fill:#ffd5cc;}.cls-6{fill:#6aa9ff;}.cls-7{fill:#80d4ff;}</style><clipPath id="clip-path"><circle class="cls-1" cx="200" cy="200" r="194.42"/></clipPath></defs><title>swimming</title><g class="cls-2"><circle class="cls-3" cx="200" cy="200" r="194.42"/><path class="cls-4" d="M317,157.49A42.8,42.8,0,0,0,263.16,152a7.15,7.15,0,0,0-1.11,11l49.43,49.42a7.15,7.15,0,0,0,11-1.09h0A42.8,42.8,0,0,0,317,157.49Z"/><path class="cls-5" d="M311,224.08l-6.06,6a42.8,42.8,0,1,1-60.53-60.54l6.05-6.05,36,24.52Z"/><path class="cls-6" d="M322.49,211.37A43.78,43.78,0,0,1,317,218L311,224.08l-60.54-60.54,6.05-6a42.83,42.83,0,0,1,6.67-5.46Z"/><path class="cls-5" d="M303.69,289.43l-66.53,5.47c-14.63,0-27.11-8.11-34.24-14-7.14,5.89-19.62,14-34.25,14l-68.2-5.61,65.22-65.21L130.4,188.79a25.65,25.65,0,0,1,0-36.32L202.92,80l.13-.13a25.69,25.69,0,1,1,36.33,36.32L202.92,152.6l-18,18Z"/><path class="cls-6" d="M362.93,257.19c-21.93,23.3-48.63,23.71-70,.16a10.67,10.67,0,0,0-15.82,0c-21.15,23.32-48,23.37-69.17,0a10.67,10.67,0,0,0-15.82,0c-21.15,23.32-48,23.37-69.17,0a10.68,10.68,0,0,0-15.82,0c-20.65,22.76-47.31,23.95-70-.12a10.64,10.64,0,0,0-18.41,7.23v42.5a10.61,10.61,0,0,0,2.84,7.23c27.31,29.4,61.9,33.33,93.48,7.26,29,23.9,58,22.29,85,0,28.95,23.9,58,22.29,85,0,31.47,26,66.06,22.26,93.48-7.26a10.61,10.61,0,0,0,2.84-7.23v-42.5A10.63,10.63,0,0,0,362.93,257.19Z"/><path class="cls-7" d="M362.93,312.8c-21.93,23.3-48.63,23.72-70,.17a10.67,10.67,0,0,0-15.82,0c-21.15,23.33-48,23.37-69.17,0a10.68,10.68,0,0,0-15.82,0c-21.15,23.33-48,23.37-69.17,0a10.66,10.66,0,0,0-15.82,0c-20.65,22.77-47.31,24-70-.12a10.64,10.64,0,0,0-18.41,7.24V383.8a10.63,10.63,0,0,0,10.62,10.62H370.69a10.63,10.63,0,0,0,10.62-10.62V320.06A10.64,10.64,0,0,0,362.93,312.8Z"/></g></svg>