<svg id="Capa_1" data-name="Capa 1" xmlns="http://www.w3.org/2000/svg" viewBox="0 0 400 400"><defs><style>.cls-1{fill:#1e4471;}.cls-2{fill:#00bceb;}.cls-3{fill:#fbab2c;}.cls-4{fill:#ecf4ff;}.cls-5{fill:#e3241b;}.cls-6{fill:#74bf4b;}.cls-7{fill:#fff;}</style></defs><title>iconos2</title><circle class="cls-1" cx="200" cy="200" r="194.42"/><rect class="cls-2" x="77.04" y="102.38" width="245.93" height="164.93" rx="13.88"/><rect class="cls-1" x="88.49" y="113.27" width="223.01" height="143.15"/><path class="cls-3" d="M158.13,239.7H126a6.42,6.42,0,0,1-6.42-6.42v-32.1a6.41,6.41,0,0,1,6.42-6.42h32.1a6.41,6.41,0,0,1,6.42,6.42v32.1A6.42,6.42,0,0,1,158.13,239.7Z"/><path class="cls-4" d="M148.17,215.54a7.68,7.68,0,0,0,1.36-4.38,7.79,7.79,0,0,0-7.78-7.77h-6.53a2.59,2.59,0,0,0-2.6,2.6v22.47a2.59,2.59,0,0,0,2.6,2.61h0l7.66,0a8.64,8.64,0,0,0,5.28-15.5Zm-6.42-6.94a2.57,2.57,0,0,1,0,5.13h-3.92V208.6Zm1.14,17.23-5.06,0V219h5.06a3.44,3.44,0,1,1,0,6.88Z"/><path class="cls-5" d="M158.13,183.52H126a6.41,6.41,0,0,1-6.42-6.42V145a6.42,6.42,0,0,1,6.42-6.42h32.1a6.42,6.42,0,0,1,6.42,6.42v32.1A6.41,6.41,0,0,1,158.13,183.52Z"/><path class="cls-6" d="M255.74,183.52h-32.1a6.41,6.41,0,0,1-6.42-6.42V145a6.42,6.42,0,0,1,6.42-6.42h32.1a6.43,6.43,0,0,1,6.42,6.42v32.1A6.42,6.42,0,0,1,255.74,183.52Z"/><path class="cls-2" d="M255.74,239.7h-32.1a6.42,6.42,0,0,1-6.42-6.42v-32.1a6.41,6.41,0,0,1,6.42-6.42h32.1a6.42,6.42,0,0,1,6.42,6.42v32.1A6.43,6.43,0,0,1,255.74,239.7Z"/><path class="cls-4" d="M153.39,171.37,145,149.21l0-.07a3.1,3.1,0,0,0-2.88-1.93h0a3.12,3.12,0,0,0-2.89,1.94.14.14,0,0,1,0,.06l-8.44,22.15a2.61,2.61,0,0,0,4.88,1.86l1.46-3.84h10l1.44,3.83a2.6,2.6,0,0,0,2.44,1.68,2.66,2.66,0,0,0,.92-.16A2.61,2.61,0,0,0,153.39,171.37Zm-14.3-7.21,3-7.92,3,7.92Z"/><path class="cls-7" d="M194.75,152.42h-19a2.61,2.61,0,1,1,0-5.21h19a2.61,2.61,0,0,1,0,5.21Z"/><path class="cls-7" d="M187.72,163.66H175.79a2.61,2.61,0,1,1,0-5.21h11.93a2.61,2.61,0,1,1,0,5.21Z"/><path class="cls-7" d="M187.72,174.89H175.79a2.61,2.61,0,1,1,0-5.21h11.93a2.61,2.61,0,1,1,0,5.21Z"/><path class="cls-7" d="M194.75,208.6h-19a2.61,2.61,0,1,1,0-5.21h19a2.61,2.61,0,0,1,0,5.21Z"/><path class="cls-7" d="M187.72,219.84H175.79a2.61,2.61,0,1,1,0-5.22h11.93a2.61,2.61,0,1,1,0,5.22Z"/><path class="cls-7" d="M187.72,231.07H175.79a2.61,2.61,0,1,1,0-5.21h11.93a2.61,2.61,0,1,1,0,5.21Z"/><path class="cls-4" d="M241.77,174.89a13.84,13.84,0,1,1,7.74-25.31,2.61,2.61,0,1,1-2.92,4.32,8.63,8.63,0,1,0-4.82,15.78,6.45,6.45,0,0,0,4.43-1.57,6.89,6.89,0,0,0,.65-.67,2.6,2.6,0,0,1,4,3.35,12.18,12.18,0,0,1-1.17,1.21,11.69,11.69,0,0,1-7.9,2.89Z"/><path class="cls-4" d="M232,231.07a2.56,2.56,0,0,1-1.83-.76,2.59,2.59,0,0,1-.77-1.84s0-8.14,0-11.27c0-2.56,0-11.2,0-11.2a2.59,2.59,0,0,1,2.61-2.61h6.36c7,0,11.68,5.56,11.68,13.84,0,7.87-4.81,13.67-11.45,13.79-1.81,0-6.34,0-6.54,0Zm2.57-22.47c0,2.76,0,7,0,8.6,0,2,0,6,0,8.64,1.39,0,3,0,3.86,0,4.37-.08,6.33-4.37,6.33-8.58s-1.7-8.63-6.47-8.63Z"/><path class="cls-7" d="M292.35,152.42h-19a2.61,2.61,0,0,1,0-5.21h19a2.61,2.61,0,1,1,0,5.21Z"/><path class="cls-7" d="M285.33,163.66H273.39a2.61,2.61,0,0,1,0-5.21h11.94a2.61,2.61,0,1,1,0,5.21Z"/><path class="cls-7" d="M285.33,174.89H273.39a2.61,2.61,0,0,1,0-5.21h11.94a2.61,2.61,0,1,1,0,5.21Z"/><path class="cls-7" d="M292.35,208.6h-19a2.61,2.61,0,0,1,0-5.21h19a2.61,2.61,0,1,1,0,5.21Z"/><path class="cls-7" d="M285.33,219.84H273.39a2.61,2.61,0,0,1,0-5.22h11.94a2.61,2.61,0,1,1,0,5.22Z"/><path class="cls-7" d="M285.33,231.07H273.39a2.61,2.61,0,0,1,0-5.21h11.94a2.61,2.61,0,1,1,0,5.21Z"/><path class="cls-2" d="M337.06,293.16H62.94a5.5,5.5,0,0,1,0-11H337.06a5.5,5.5,0,0,1,0,11Z"/></svg>