<svg id="Capa_1" data-name="Capa 1" xmlns="http://www.w3.org/2000/svg" viewBox="0 0 400 400"><defs><style>.cls-1{fill:#1e4471;}.cls-2{fill:#ffb69e;}.cls-3{fill:#f2a88f;}.cls-4{fill:#00bceb;}.cls-5{fill:#82be50;}</style></defs><title>iconos2</title><circle class="cls-1" cx="200" cy="200" r="194.42"/><path class="cls-2" d="M329.16,264.54h-33L257,232.35,225.1,186.18a32.46,32.46,0,0,0-16.7-12.44l-54-17.54-31.83-8.66L79.72,112.08a11.45,11.45,0,0,0-14.59,17.66l44.78,37A11.52,11.52,0,0,0,114.2,169l33.14,9L121.2,258.46a28,28,0,0,0,26.61,36.62H329.48a15.27,15.27,0,0,0,15.26-15.7A15.47,15.47,0,0,0,329.16,264.54Zm-136.09,0,17.52-59.39L239,246.64a11.16,11.16,0,0,0,2.18,2.37l18.88,15.53Z"/><path class="cls-3" d="M329.16,264.54h-33L257,232.35,225.1,186.18a32.46,32.46,0,0,0-16.7-12.44l-54-17.54-31.83-8.66L79.72,112.08a11.45,11.45,0,0,0-14.59,17.66l44.78,37A11.52,11.52,0,0,0,114.2,169l33.14,9L121.2,258.46a28,28,0,0,0,26.61,36.62H329.48a15.27,15.27,0,0,0,15.26-15.7A15.47,15.47,0,0,0,329.16,264.54Zm-136.09,0,17.52-59.39L239,246.64a11.16,11.16,0,0,0,2.18,2.37l18.88,15.53Z"/><path class="cls-4" d="M235.45,264.54H193.07a16.29,16.29,0,0,1-17.13,11.61L120.1,271a28,28,0,0,0,27.71,24.06h87.64V264.54Z"/><path class="cls-2" d="M225.1,186.18,257,232.35,225.1,186.18A32.47,32.47,0,0,0,211.74,175,32.47,32.47,0,0,1,225.1,186.18Z"/><polygon class="cls-2" points="241.17 249.01 260.05 264.54 260.05 264.54 241.17 249.01"/><path class="cls-2" d="M211.74,175a32.08,32.08,0,0,0-3.34-1.3l-54-17.54,54,17.54A32.08,32.08,0,0,1,211.74,175Z"/><path class="cls-2" d="M210.59,205.15,239,246.64a11.16,11.16,0,0,0,2.18,2.37l18.88,15.53h0l23.06,19a11.46,11.46,0,0,0,16.38-1.91,11.63,11.63,0,0,0-2-16L257,232.35,225.1,186.18A32.47,32.47,0,0,0,211.74,175a33,33,0,0,0-3.34-1.3l-54-17.54-31.83-8.67L79.72,112.08a11.45,11.45,0,0,0-14.59,17.66l44.78,37A11.52,11.52,0,0,0,114.2,169l33.14,9L121.2,258.46A27.68,27.68,0,0,0,120.1,271l55.84,5.14a16.29,16.29,0,0,0,17.13-11.61h0Z"/><path class="cls-5" d="M125.75,172.13,147.34,178,121.2,258.46A27.68,27.68,0,0,0,120.1,271l55.84,5.14a16.29,16.29,0,0,0,17.13-11.61h0l17.52-59.39,12.35,18,16.39-16.39L225.1,186.18a32.46,32.46,0,0,0-16.7-12.44l-8.88-2.89a14.56,14.56,0,0,1-13.29,9.44c-7.83,0-13.63-6.4-14-14a11.92,11.92,0,0,1,.56-4.14l-18.39-6-22.13-6Z"/><circle class="cls-2" cx="198.08" cy="131.43" r="26.5"/></svg>