<svg id="Capa_1" data-name="Capa 1" xmlns="http://www.w3.org/2000/svg" viewBox="0 0 400 400"><defs><style>.cls-1{fill:#fbab1a;}.cls-2{fill:#d38f29;}.cls-3{fill:#aa6b17;}.cls-4{fill:#ccc;}.cls-5{fill:#a0a09d;}.cls-6{fill:#fff;}.cls-7{fill:#f47521;}.cls-8{fill:#e22826;}.cls-9{fill:#f23f00;stroke-miterlimit:10;}.cls-10,.cls-9{stroke:#f47521;}.cls-10{fill:none;stroke-linecap:round;stroke-linejoin:round;stroke-width:10px;}</style></defs><title>iconos2</title><rect class="cls-1" width="400" height="400"/><path class="cls-2" d="M284.36,190.13l80.91-39.42a10.2,10.2,0,0,0,4.78-13.61L370,137l-1.2-2.39a10.2,10.2,0,0,0-13.29-4.75L276.07,165.9Z"/><circle class="cls-3" cx="281.81" cy="177.38" r="12.75"/><path class="cls-2" d="M257.59,199.69a5.09,5.09,0,0,1-2.83-9.34l21.67-14.67a5.1,5.1,0,0,1,5.66,8.49l-21.68,14.66A5.06,5.06,0,0,1,257.59,199.69Z"/><path class="cls-4" d="M267.29,195c16.65,47.88-17.29,103.21-75.81,123.56S72,316.61,55.34,268.73Z"/><path class="cls-5" d="M105.86,222c9.31-4.69,19.59-9.28,30.6-13.59q7.2-2.82,14.8-5.46c58.53-20.36,110.47-23.92,116-8s-37.4,45.4-95.92,65.76-110.47,23.92-116,8c-1.87-5.39,1.79-12.33,9.72-19.93"/><path class="cls-6" d="M154.43,266.26c-21,6.29-40.52,10.25-56.65,11.76-30.25-5.38-38.16-43.13-38.23-54.49a7.84,7.84,0,0,1,7.8-7.9h.06a7.86,7.86,0,0,0,7.85-7.86V171.7a12.17,12.17,0,1,1,24.34,0c0,.21,0,.41,0,.62C98.28,199,99.09,258.1,154.31,266Z"/><circle class="cls-6" cx="95.66" cy="118.73" r="10.2"/><circle class="cls-7" cx="131.36" cy="83.03" r="10.2"/><path class="cls-8" d="M121.16,139.13h0a5.1,5.1,0,0,1,5.1,5.1h0a5.1,5.1,0,0,1-5.1,5.1h0a5.1,5.1,0,0,1-5.1-5.1h0A5.1,5.1,0,0,1,121.16,139.13Z"/><path class="cls-8" d="M116.06,185h0a5.1,5.1,0,0,1,5.1,5.1h0a5.1,5.1,0,0,1-5.1,5.1h0a5.1,5.1,0,0,1-5.1-5.1h0A5.1,5.1,0,0,1,116.06,185Z"/><path class="cls-8" d="M146.66,230.93h0a5.1,5.1,0,0,1,5.1,5.1h0a5.1,5.1,0,0,1-5.1,5.1h0a5.1,5.1,0,0,1-5.1-5.1h0A5.1,5.1,0,0,1,146.66,230.93Z"/><path class="cls-9" d="M65.06,134h0a5.1,5.1,0,0,1,5.1,5.1h0a5.1,5.1,0,0,1-5.1,5.1h0a5.1,5.1,0,0,1-5.1-5.1h0A5.1,5.1,0,0,1,65.06,134Z"/><path class="cls-6" d="M146.78,220.63a5,5,0,0,1-7.33-.92c-11.2-15.9-10.24-30.37-7.22-40a49.39,49.39,0,0,1,7.07-14.08A5.07,5.07,0,0,1,147,165l3.28,3.27-3.61-3.6.37.36a5,5,0,0,1,.55,6.52c-4.86,6.72-13.31,23,.17,42.25a5.05,5.05,0,0,1-.86,6.78Z"/><path class="cls-6" d="M248,211.71c-.66,5.59-1.93,11.65-4.4,14.12l.05.24a248.84,248.84,0,0,1-35.16,19.68,58.86,58.86,0,0,0,19.22-36.54,10.21,10.21,0,0,1,10.11-8.88h.05a10.2,10.2,0,0,1,10.2,10.2A11.67,11.67,0,0,1,248,211.71Z"/><path class="cls-10" d="M141.27,134s1.49-19,15.59-30.6"/></svg>