<svg id="Capa_1" data-name="Capa 1" xmlns="http://www.w3.org/2000/svg" viewBox="0 0 400 400"><defs><style>.cls-1{fill:#00bceb;}.cls-2{fill:#1e4471;}.cls-3{fill:#0d274d;}.cls-4{fill:#fbab2c;}.cls-5{fill:#fff;}.cls-6{fill:#f15a57;}.cls-7{fill:#b0f4ff;}.cls-8{fill:#f6fcff;}.cls-9{fill:#f1f2f2;}.cls-10{fill:#e6e7e8;}.cls-11{fill:#fbab1a;}.cls-12{fill:#cff6ff;}</style></defs><title>iconos2</title><rect class="cls-1" width="400" height="400"/><path class="cls-2" d="M305.26,331.29H97a5.66,5.66,0,0,1-5.66-5.66v-103H304.12l6.8,9.05v93.94A5.67,5.67,0,0,1,305.26,331.29Z"/><path class="cls-3" d="M195.47,222.64h9.06V331.29h-9.06Z"/><path class="cls-4" d="M302.31,185.93l-23.53-13.58,4.53-7.84,21.42-19,7.84,4.53-5.74,28.05Z"/><path class="cls-5" d="M278.78,172.35l23.52,13.58-31.69,54.89-23.52-13.59Z"/><path class="cls-6" d="M304.75,145.5l4.52-7.84a4.53,4.53,0,0,1,6.19-1.66h0a4.52,4.52,0,0,1,1.65,6.18L312.59,150Z"/><path class="cls-7" d="M254.33,141.15a54.33,54.33,0,1,0-79.89,47.95l7.45,33.54h36.22l7.45-33.54A54.35,54.35,0,0,0,254.33,141.15Z"/><path class="cls-6" d="M181.89,222.64h36.22l6-27.17h-48.3Z"/><path class="cls-8" d="M213.58,127.57a4.52,4.52,0,0,0-3.2,1.32L200,139.27l-10.38-10.38a4.52,4.52,0,0,0-3.2-1.32H172.84a4.52,4.52,0,0,0-4.53,4.52h0a4.53,4.53,0,0,0,4.53,4.53h11.7l10.93,10.93v47.92h9.06V147.55l10.93-10.93h11.7a4.53,4.53,0,0,0,4.53-4.53h0a4.52,4.52,0,0,0-4.53-4.52Z"/><path class="cls-9" d="M230,258.85h91.09a5.65,5.65,0,0,0,4.8-8.65l-17.23-27.56H200l25.47,33.95a5.65,5.65,0,0,0,4.52,2.26Z"/><path class="cls-10" d="M127.24,179.32l-23.52,13.59-21.43-19,2.11-32.58,7.84-4.53,29.26,14.47Z"/><path class="cls-2" d="M103.72,192.9l23.52-13.58,24.9,43.13L128.61,236Z"/><path class="cls-1" d="M84.39,141.33l7.85-4.53,11.31,19.6a4.54,4.54,0,0,1-1.65,6.19h0a4.53,4.53,0,0,1-6.19-1.66Z"/><path class="cls-9" d="M170,258.85H78.92a5.65,5.65,0,0,1-4.8-8.65l17.23-27.56H200l-25.47,33.95A5.65,5.65,0,0,1,170,258.85Z"/><path class="cls-5" d="M123,126.56,99.52,113,113.1,89.46,136.62,103Z"/><path class="cls-11" d="M117.75,106.82,94.23,93.24l13.58-23.52L131.33,83.3Z"/><path class="cls-12" d="M316.26,90.18a4.53,4.53,0,0,0-2.11-2.75L282.78,69.32A4.52,4.52,0,0,0,276.6,71l-6.79,11.76,7.84,4.53,4.53-7.85L290,84,274.17,111.4l-3.92-2.27L265.73,117,281.41,126l4.52-7.84L282,115.92l15.85-27.44L305.7,93l-4.53,7.84,7.84,4.52,6.8-11.76a4.52,4.52,0,0,0,.45-3.43Z"/></svg>