<svg id="Capa_1" data-name="Capa 1" xmlns="http://www.w3.org/2000/svg" viewBox="0 0 400 400"><defs><style>.cls-1{fill:#08bceb;}.cls-2{fill:#a56a43;}.cls-3{fill:#fdd7ad;}.cls-4{fill:#805333;}</style></defs><title>iconos2</title><rect class="cls-1" width="400" height="400"/><path id="Shape" class="cls-2" d="M98.28,229l-9.47-10.07A73.77,73.77,0,0,1,196.08,117.67l3.16,3.36,40.88,14.11L307.21,222c4.11,4.36,8.37,8.22,8.19,16.55a18.46,18.46,0,0,1-31.85,12.12A18.45,18.45,0,1,1,256.72,276a18.43,18.43,0,0,1-25.33,26.7Z"/><path class="cls-3" d="M156.2,217.12a18.37,18.37,0,0,1-5.77,13.4L127,252.67a18.45,18.45,0,1,1-25.32-26.84l23.47-22.16a18.45,18.45,0,0,1,31.08,13.45Z"/><path class="cls-3" d="M156,219.92a18.2,18.2,0,0,1-5.55,10.6L127,252.67a18.47,18.47,0,0,1-28.2-3.47,18.18,18.18,0,0,1,5.59-10.56l23.46-22.15A18.43,18.43,0,0,1,156,219.92Z"/><path class="cls-3" d="M181.51,243.92a18.37,18.37,0,0,1-5.77,13.4l-23.46,22.15a18.5,18.5,0,0,1-31.13-13.4,18.27,18.27,0,0,1,5.82-13.4l23.46-22.15a18.44,18.44,0,0,1,31.08,13.4Z"/><path class="cls-3" d="M178.45,254.12c-1.58,2.41-1.36,1.92-26.17,25.35a18.49,18.49,0,0,1-30.91-10.55c1.58-2.41,1.36-1.92,26.17-25.36a18.42,18.42,0,0,1,26.08.77,26,26,0,0,1,4.83,9.79Z"/><path class="cls-3" d="M232.14,297.57A18.57,18.57,0,0,1,226.36,311L202.9,333.16a18.45,18.45,0,0,1-25.31-26.84l23.46-22.15a18.45,18.45,0,0,1,31.09,13.4Z"/><path class="cls-3" d="M232,300.09a18.6,18.6,0,0,1-5.6,10.92L202.9,333.16a18.51,18.51,0,0,1-27.48-2.43,18.24,18.24,0,0,1,5.64-10.88l23.47-22.15A18.53,18.53,0,0,1,232,300.09Z"/><path class="cls-3" d="M307.21,222l-69.76-73.91a9,9,0,0,0-12.76-.37L191,179.5c-14.15,13.4-36.71,3.33-36.35-10.86A14.06,14.06,0,0,1,159,159l46.92-44.32A73.78,73.78,0,0,1,307.21,222Z"/><path class="cls-4" d="M256.72,280.5a4.52,4.52,0,0,1-3.28-1.41l-60.12-63.72a4.51,4.51,0,1,1,6.57-6.19L260,272.89a4.51,4.51,0,0,1-3.28,7.61Z"/><path class="cls-4" d="M283.55,255.18a4.52,4.52,0,0,1-3.29-1.41l-60.12-63.71a4.51,4.51,0,0,1,6.57-6.19l60.12,63.7a4.51,4.51,0,0,1-3.28,7.61Z"/><path class="cls-3" d="M206.83,270.72a19,19,0,0,1-5.78,13.45l-23.46,22.15a18.45,18.45,0,0,1-25.31-26.85l23.46-22.15a18.46,18.46,0,0,1,31.09,13.4Z"/><path class="cls-3" d="M206.65,273.16a18.33,18.33,0,0,1-5.6,11l-23.46,22.15a18.52,18.52,0,0,1-27.52-2.53,18.19,18.19,0,0,1,5.59-11l23.46-22.15a18.5,18.5,0,0,1,26.08.77,11.7,11.7,0,0,1,1.45,1.76Z"/></svg>