<svg id="Capa_1" data-name="Capa 1" xmlns="http://www.w3.org/2000/svg" xmlns:xlink="http://www.w3.org/1999/xlink" viewBox="0 0 400 400"><defs><style>.cls-1{fill:none;}.cls-2{fill:#71bf4a;}.cls-3{fill:#edbb87;}.cls-4{fill:#1e4471;}.cls-5{clip-path:url(#clip-path);}.cls-6,.cls-7{fill:#b0f0ff;}.cls-6,.cls-8{fill-rule:evenodd;}.cls-8{fill:#fff;}.cls-9{fill:#f1d0a4;}</style><clipPath id="clip-path"><circle class="cls-1" cx="200" cy="192.53" r="124.75"/></clipPath></defs><title>iconos2</title><rect class="cls-2" width="400" height="400"/><path class="cls-3" d="M330.87,248.2l-36.57,7.92-5.53-25.51,36.58-7.93a13.06,13.06,0,0,1,5.52,25.52Z"/><path class="cls-3" d="M69.12,248.2l36.58,7.92,5.53-25.51-36.58-7.93a13.06,13.06,0,0,0-5.53,25.52Z"/><circle class="cls-4" cx="200" cy="192.53" r="124.75"/><g class="cls-5"><path class="cls-6" d="M388.71,149.94H352A12,12,0,1,0,352,126a12,12,0,0,0,12-12h0a12,12,0,0,0-12-12H255.27a12,12,0,0,0-12,12h0a12,12,0,0,0,12,12h40a12,12,0,1,1,0,23.92H292a12,12,0,0,0,0,23.93h96.76a12,12,0,1,0,0-23.93Z"/><path class="cls-6" d="M185.87,134.12H139a12,12,0,0,1,0-23.93h6.39a12,12,0,0,0,0-23.92H48.67a12,12,0,0,0,0,23.92,12,12,0,0,0,0,23.93H89.1a12,12,0,0,0,0,23.92h96.77a12,12,0,1,0,0-23.92Z"/><path class="cls-6" d="M332.37,236.08h-31a10.89,10.89,0,1,1,0-21.78h20.08a10.89,10.89,0,0,0,0-21.77H198.75a10.89,10.89,0,0,0,0,21.77h44.34a10.89,10.89,0,1,1,0,21.78h-33.4a10.89,10.89,0,1,0,0,21.77h39.92a10.88,10.88,0,0,1-.4,21.75h-16.1a10.89,10.89,0,1,0,0,21.77h62a10.89,10.89,0,0,0,0-21.77h-6.47a10.88,10.88,0,0,1-.4-21.75h44.1a10.89,10.89,0,1,0,0-21.77Z"/><rect class="cls-7" x="74.55" y="230.8" width="83.73" height="25.41" rx="12.71"/><path class="cls-8" d="M265.25,256.19H251.31a5.78,5.78,0,1,1,0-11.55h10.61a5.78,5.78,0,1,0,0-11.55H192.53a5.78,5.78,0,0,0,0,11.55H216a5.78,5.78,0,1,1,0,11.55h-.57a5.78,5.78,0,1,0,0,11.55h49.82a5.78,5.78,0,1,0,0-11.55Z"/><path class="cls-8" d="M205.75,191.38H191.8a5.78,5.78,0,0,1,0-11.55h10.61a5.78,5.78,0,1,0,0-11.55H133a5.78,5.78,0,0,0,0,11.55H156.5a5.78,5.78,0,0,1,0,11.55h-.58a5.78,5.78,0,1,0,0,11.55h49.83a5.78,5.78,0,0,0,0-11.55Z"/></g><path class="cls-9" d="M283.22,240.64a12,12,0,0,1,16.93,0L320.48,261a12,12,0,0,1-16.94,16.94l-20.32-20.33A12,12,0,0,1,283.22,240.64Z"/><path class="cls-9" d="M259,250.32a12,12,0,0,1,16.94,0l34.84,34.84a12,12,0,1,1-16.94,16.93L259,267.25A12,12,0,0,1,259,250.32Z"/><path class="cls-9" d="M242.09,267.25a12,12,0,0,1,16.93,0l34.84,34.84A12,12,0,0,1,276.93,319l-34.84-34.84A12,12,0,0,1,242.09,267.25Z"/><path class="cls-9" d="M232.41,291.45a12,12,0,0,1,16.93,0l20.33,20.32a12,12,0,1,1-16.94,16.94l-20.32-20.33A12,12,0,0,1,232.41,291.45Z"/><path class="cls-9" d="M116.78,240.64a12,12,0,0,0-16.93,0L79.52,261A12,12,0,0,0,96.46,277.9l20.32-20.33A12,12,0,0,0,116.78,240.64Z"/><path class="cls-9" d="M141,250.32a12,12,0,0,0-16.94,0L89.2,285.16a12,12,0,0,0,16.94,16.93L141,267.25A12,12,0,0,0,141,250.32Z"/><path class="cls-9" d="M157.91,267.25a12,12,0,0,0-16.93,0l-34.84,34.84A12,12,0,0,0,123.07,319l34.84-34.84A12,12,0,0,0,157.91,267.25Z"/><path class="cls-9" d="M167.59,291.45a12,12,0,0,0-16.94,0l-20.32,20.32a12,12,0,1,0,16.94,16.94l20.32-20.33A12,12,0,0,0,167.59,291.45Z"/></svg>