<svg id="Capa_1" data-name="Capa 1" xmlns="http://www.w3.org/2000/svg" viewBox="0 0 400 400"><defs><style>.cls-1{fill:#71bf4a;}.cls-2{fill:#ffb69e;}.cls-3{fill:#f1f2f2;}.cls-4{fill:#5f6e9b;}.cls-5{fill:#414b82;}.cls-6{fill:#fff;}</style></defs><title>iconos2</title><rect class="cls-1" x="0.97" width="400" height="400"/><path class="cls-2" d="M167.71,163.42l10.66-6.25,1-15.2-13-7.39L148,145.4a12.76,12.76,0,0,0-6.28,11.88l4,58.06a12.77,12.77,0,0,0,25.47-1.75Z"/><path class="cls-3" d="M212.6,122.3a12.75,12.75,0,0,0-17.46-4.55l-28.76,16.83,12,22.59,29.68-17.4a12.76,12.76,0,0,0,4.55-17.47Z"/><path class="cls-4" d="M103.76,292.2a15.32,15.32,0,0,1,12.49-17.69L171.46,265l2.31-37.66,31.46-7.66-4,59.4a15.32,15.32,0,0,1-12.68,14.06l-67.07,11.57A15.32,15.32,0,0,1,103.76,292.2Z"/><path class="cls-5" d="M247.5,343.05l-7.45-70.5-22.63-48a15.32,15.32,0,0,1,27.71-13.07l23.73,50.34a15.3,15.3,0,0,1,1.38,4.92L278,339.83a15.31,15.31,0,1,1-30.46,3.22Z"/><path class="cls-6" d="M244.57,119.64l-37.88-5.34a16.84,16.84,0,0,0-19,14.33l-13.9,98.68,47.95,7.88a23,23,0,0,0,26.53-19.56l10.65-77a16.84,16.84,0,0,0-14.33-19Z"/><circle class="cls-2" cx="240.71" cy="80.67" r="28.14" transform="translate(-12.1 103.87) rotate(-23.77)"/><path class="cls-2" d="M313.3,101.75a12.77,12.77,0,0,0-17.86,2.64l-25.17,33.86-17.87-6.11-7.3,10.6v13.89l25.73,8.79A12.76,12.76,0,0,0,285.21,161l30.72-41.35A12.76,12.76,0,0,0,313.3,101.75Z"/><path class="cls-3" d="M252.4,132.14l-28.5-9.74a12.76,12.76,0,0,0-8.26,24.15l29.46,10.08Z"/><rect class="cls-6" x="88.87" y="108.82" width="64.94" height="17.82" rx="8.07"/><rect class="cls-6" x="74.64" y="167.02" width="50.99" height="17.82" rx="8.07"/><rect class="cls-6" x="35.06" y="137.92" width="79.17" height="17.82" rx="8.07"/></svg>