<svg id="Capa_1" data-name="Capa 1" xmlns="http://www.w3.org/2000/svg" viewBox="0 0 400 400"><defs><style>.cls-1{fill:#fbab1a;}.cls-2{fill:#f04c38;}.cls-3{fill:#e1170b;opacity:0.5;}.cls-4{fill:#fff;}</style></defs><title>iconos2</title><rect class="cls-1" width="400" height="400"/><path class="cls-2" d="M88.26,199.63c-.34-1-26.72-78.41,30.43-100.26,55.35-21.16,88.89,21.63,95.45,31,.73,1.05,1.46,2.08,2.25,3.08,5.55,7.09,30.3,43.06,18.45,107.5-.58,3.15-1.65,6.2-2.34,9.33-4.2,19.23-11.71,80.6-59.33,45.45C172.06,295,102.85,245.1,88.26,199.63Z"/><path class="cls-2" d="M311.74,199.63c.34-1,26.72-78.41-30.43-100.26-55.35-21.16-88.89,21.63-95.45,31-.73,1.05-1.46,2.08-2.25,3.08-5.55,7.09-30.3,43.06-18.45,107.5.58,3.15,1.65,6.2,2.34,9.33,4.2,19.23,11.71,80.6,59.33,45.45C227.94,295,297.15,245.1,311.74,199.63Z"/><path class="cls-3" d="M200,306.39c24.05-1.36,34.26-62.25,34.84-65.4,11.85-64.44-12.9-100.41-18.45-107.5-.79-1-1.52-2-2.25-3.08A95.91,95.91,0,0,0,200,114.56a95.91,95.91,0,0,0-14.14,15.85c-.73,1.05-1.46,2.08-2.25,3.08-5.55,7.09-30.3,43.06-18.45,107.5C165.74,244.14,176,305,200,306.39Z"/><path class="cls-4" d="M199.15,270.19a7.7,7.7,0,0,1-7.56-6.27l-18.8-99.85-20,47.53a7.69,7.69,0,0,1-14,.48l-5.35-10.63H58.6a7.7,7.7,0,0,1,0-15.39h79.62a7.69,7.69,0,0,1,6.86,4.19l23.45-55.73a7.7,7.7,0,0,1,14.66,1.56l15.5,82.33,6.41-38.52a7.7,7.7,0,0,1,7.59-6.43h25.12a7.7,7.7,0,0,1,6.45,3.49l11.79,18.1,5.09-6.18a7.68,7.68,0,0,1,5.94-2.81H341.4a7.7,7.7,0,0,1,0,15.39H270.72l-9.44,11.49a7.7,7.7,0,0,1-12.39-.69l-15.25-23.4H219.21l-12.46,74.9a7.7,7.7,0,0,1-7.51,6.44Z"/></svg>