<svg xmlns="http://www.w3.org/2000/svg" width="42" height="42.171" viewBox="0 0 42 42.171"><defs><style>.a{fill:#eceff1;}.b{fill:#455a64;}</style></defs><g transform="translate(-0.305 -0.305)"><circle class="a" cx="21" cy="21" r="21" transform="translate(0.305 0.305)"/><path class="b" d="M95.1,92.347a7.882,7.882,0,0,0-3.271-1.511l-5.822-1.168a1.313,1.313,0,0,1-1.051-1.3V87.033a15.949,15.949,0,0,0,1.1-1.954,10.727,10.727,0,0,1,.934-1.638,8.679,8.679,0,0,0,2.671-4.229,4.078,4.078,0,0,0-.374-3.133,23.516,23.516,0,0,0-.454-5.365c-.048-2.092-.427-3.268-1.383-4.3a4.105,4.105,0,0,0-2.466-1.035,4.31,4.31,0,0,1-.905-.212A9.369,9.369,0,0,0,79.591,64c-3.5.143-7.794,2.368-9.233,6.334a15.068,15.068,0,0,0-.364,4.784l-.035.958a4.252,4.252,0,0,0-.348,3.133,8.664,8.664,0,0,0,2.689,4.25,11.654,11.654,0,0,1,.932,1.63,16.5,16.5,0,0,0,1.1,1.946v1.335a1.319,1.319,0,0,1-1.057,1.3l-5.827,1.168a7.9,7.9,0,0,0-3.26,1.508,1.33,1.33,0,0,0-.157,1.933,21.135,21.135,0,0,0,31.22,0,1.33,1.33,0,0,0-.157-1.933Z" transform="translate(-58.409 -58.691)"/></g></svg>